# Blender v2.92.0 OBJ File: 'mine-maze-s.blend'
# www.blender.org
mtllib battery1.mtl
o Cylinder
v 7.064099 1.214600 -18.650801
v 7.064099 2.039257 -18.697826
v 7.076270 2.039257 -18.696224
v 7.087612 2.039257 -18.691526
v 7.097352 2.039257 -18.684053
v 7.104825 2.039257 -18.674314
v 7.109523 2.039257 -18.662971
v 7.111125 2.039257 -18.650801
v 7.109523 2.039257 -18.638630
v 7.104825 2.039257 -18.627287
v 7.097352 2.039257 -18.617548
v 7.087612 2.039257 -18.610075
v 7.076270 2.039257 -18.605377
v 7.064099 2.039257 -18.603775
v 7.051928 2.039257 -18.605377
v 7.040586 2.039257 -18.610075
v 7.030846 2.039257 -18.617548
v 7.023373 2.039257 -18.627287
v 7.018675 2.039257 -18.638630
v 7.017072 2.039257 -18.650801
v 7.018675 2.039257 -18.662971
v 7.023373 2.039257 -18.674314
v 7.030846 2.039257 -18.684053
v 7.224793 1.214963 -18.650877
v 7.040586 2.039257 -18.691526
v 7.064793 1.214963 -18.650877
v 7.051928 2.039257 -18.696224
v 7.105510 2.039257 -18.805349
v 7.064099 2.039257 -18.810801
v 7.144099 2.039257 -18.789364
v 7.177236 2.039257 -18.763937
v 7.202663 2.039257 -18.730801
v 7.218647 2.039257 -18.692211
v 7.224099 2.039257 -18.650801
v 7.218647 2.039257 -18.609390
v 7.202663 2.039257 -18.570801
v 7.177236 2.039257 -18.537664
v 7.144099 2.039257 -18.512238
v 7.105510 2.039257 -18.496252
v 7.064099 2.039257 -18.490801
v 7.022688 2.039257 -18.496252
v 6.984099 2.039257 -18.512238
v 6.950962 2.039257 -18.537664
v 6.925535 2.039257 -18.570801
v 6.909551 2.039257 -18.609390
v 6.904099 2.039257 -18.650801
v 6.909551 2.039257 -18.692211
v 6.925535 2.039257 -18.730801
v 6.950962 2.039257 -18.763937
v 6.984099 2.039257 -18.789364
v 7.022688 2.039257 -18.805349
v 7.064099 2.063674 -18.650801
v 7.064099 1.779643 -18.810801
v 7.105510 1.779643 -18.805349
v 7.144099 1.779643 -18.789364
v 7.177236 1.779643 -18.763937
v 7.202663 1.779643 -18.730801
v 7.218647 1.779643 -18.692211
v 7.224099 1.779643 -18.650801
v 7.218647 1.779643 -18.609390
v 7.202663 1.779643 -18.570801
v 7.177236 1.779643 -18.537664
v 7.144099 1.779643 -18.512238
v 7.105510 1.779643 -18.496252
v 7.064099 1.779643 -18.490801
v 7.022688 1.779643 -18.496252
v 6.984099 1.779643 -18.512238
v 6.950962 1.779643 -18.537664
v 6.925535 1.779643 -18.570801
v 6.909551 1.779643 -18.609390
v 6.904099 1.779643 -18.650801
v 6.909551 1.779643 -18.692211
v 6.925535 1.779643 -18.730801
v 6.950962 1.779643 -18.763937
v 6.984099 1.779643 -18.789364
v 7.022688 1.779643 -18.805349
v 7.076270 2.063675 -18.696224
v 7.064099 2.063675 -18.697826
v 7.087612 2.063675 -18.691526
v 7.097352 2.063675 -18.684053
v 7.104825 2.063675 -18.674314
v 7.109523 2.063675 -18.662971
v 7.111125 2.063675 -18.650801
v 7.109523 2.063675 -18.638630
v 7.104825 2.063675 -18.627287
v 7.097352 2.063675 -18.617548
v 7.087612 2.063675 -18.610075
v 7.076270 2.063675 -18.605377
v 7.064099 2.063675 -18.603775
v 7.051928 2.063675 -18.605377
v 7.040586 2.063675 -18.610075
v 7.030846 2.063675 -18.617548
v 7.023373 2.063675 -18.627287
v 7.018675 2.063675 -18.638630
v 7.017072 2.063675 -18.650801
v 7.018675 2.063675 -18.662971
v 7.023373 2.063675 -18.674314
v 7.030846 2.063675 -18.684053
v 7.040586 2.063675 -18.691526
v 7.051928 2.063675 -18.696224
v 7.064099 1.214600 -18.810801
v 7.105510 1.214600 -18.805349
v 7.144099 1.214600 -18.789364
v 7.177236 1.214600 -18.763937
v 7.202663 1.214600 -18.730801
v 7.218647 1.214600 -18.692211
v 7.224099 1.214600 -18.650801
v 7.218647 1.214600 -18.609390
v 7.202663 1.214600 -18.570801
v 7.177236 1.214600 -18.537664
v 7.144099 1.214600 -18.512238
v 7.105510 1.214600 -18.496252
v 7.064099 1.214600 -18.490801
v 7.022688 1.214600 -18.496252
v 6.984099 1.214600 -18.512238
v 6.950962 1.214600 -18.537664
v 6.925535 1.214600 -18.570801
v 6.909551 1.214600 -18.609390
v 6.904099 1.214600 -18.650801
v 6.909551 1.214600 -18.692211
v 6.925535 1.214600 -18.730801
v 6.950962 1.214600 -18.763937
v 6.984099 1.214600 -18.789364
v 7.022688 1.214600 -18.805349
vt 0.447459 0.176666
vt 0.415735 0.194354
vt 0.413642 0.187666
vt 0.449636 0.180897
vt 0.418266 0.201004
vt 0.452345 0.185146
vt 0.421209 0.207606
vt 0.455680 0.189424
vt 0.424528 0.214159
vt 0.459794 0.193754
vt 0.428173 0.220675
vt 0.464940 0.198175
vt 0.432083 0.227190
vt 0.473964 0.096709
vt 0.443683 0.087071
vt 0.448178 0.082396
vt 0.470492 0.113136
vt 0.439215 0.091858
vt 0.465195 0.116096
vt 0.434962 0.096704
vt 0.460855 0.119177
vt 0.430950 0.101674
vt 0.457206 0.122368
vt 0.427208 0.106807
vt 0.454099 0.125670
vt 0.423766 0.112124
vt 0.451443 0.129084
vt 0.420653 0.117635
vt 0.449184 0.132610
vt 0.417893 0.123339
vt 0.447290 0.136245
vt 0.415511 0.129228
vt 0.445743 0.139984
vt 0.413527 0.135291
vt 0.444533 0.143818
vt 0.411959 0.141511
vt 0.443657 0.147740
vt 0.410824 0.147870
vt 0.443118 0.151737
vt 0.410134 0.154346
vt 0.442919 0.155798
vt 0.409901 0.160917
vt 0.443070 0.159911
vt 0.410133 0.167559
vt 0.443580 0.164063
vt 0.410834 0.174246
vt 0.474876 0.098776
vt 0.478331 0.100513
vt 0.474876 0.100513
vt 0.444467 0.168246
vt 0.412005 0.180957
vt 0.445750 0.172449
vt 0.465327 0.167591
vt 0.468278 0.171665
vt 0.466683 0.169700
vt 0.470123 0.173445
vt 0.472229 0.174987
vt 0.474610 0.176221
vt 0.471566 0.202750
vt 0.477278 0.132951
vt 0.472569 0.134099
vt 0.474842 0.133277
vt 0.470542 0.135274
vt 0.468748 0.136721
vt 0.467173 0.138386
vt 0.465809 0.140226
vt 0.464650 0.142212
vt 0.463692 0.144316
vt 0.462374 0.148797
vt 0.462934 0.146518
vt 0.462015 0.151135
vt 0.461858 0.153514
vt 0.462160 0.158322
vt 0.461905 0.155916
vt 0.462625 0.160714
vt 0.463304 0.163072
vt 0.464203 0.165372
vt 0.474876 0.083144
vt 0.478331 0.084881
vt 0.474876 0.084881
vt 0.474876 0.072722
vt 0.478331 0.070985
vt 0.478331 0.072722
vt 0.474876 0.060564
vt 0.478331 0.058827
vt 0.478331 0.060564
vt 0.474876 0.086618
vt 0.478331 0.086618
vt 0.478331 0.074459
vt 0.474876 0.074459
vt 0.478331 0.062301
vt 0.474876 0.062301
vt 0.478331 0.088354
vt 0.474876 0.088354
vt 0.474876 0.090091
vt 0.478331 0.091828
vt 0.474876 0.091828
vt 0.478331 0.076196
vt 0.474876 0.076196
vt 0.478331 0.064038
vt 0.474876 0.064038
vt 0.478331 0.090091
vt 0.478331 0.093565
vt 0.474876 0.093565
vt 0.478331 0.077933
vt 0.474876 0.077933
vt 0.478331 0.065775
vt 0.474876 0.065775
vt 0.478331 0.095302
vt 0.474876 0.095302
vt 0.478331 0.079670
vt 0.474876 0.079670
vt 0.474876 0.067512
vt 0.478331 0.067512
vt 0.478331 0.097039
vt 0.474876 0.097039
vt 0.478331 0.081407
vt 0.474876 0.081407
vt 0.474876 0.069248
vt 0.478331 0.069248
vt 0.478331 0.098776
vt 0.478331 0.083144
vt 0.474876 0.070985
vt 0.033658 0.122372
vt 0.077414 0.128049
vt 0.076295 0.130476
vt 0.033061 0.126227
vt 0.075436 0.132834
vt 0.032579 0.130090
vt 0.074803 0.135138
vt 0.032217 0.133961
vt 0.074372 0.137404
vt 0.031981 0.137842
vt 0.074128 0.139643
vt 0.031872 0.141731
vt 0.074060 0.141868
vt 0.031893 0.145628
vt 0.074168 0.144092
vt 0.032045 0.149532
vt 0.074453 0.146325
vt 0.032326 0.153442
vt 0.074924 0.148581
vt 0.032736 0.157356
vt 0.075598 0.150872
vt 0.033269 0.161274
vt 0.076497 0.153210
vt 0.033922 0.165196
vt 0.077657 0.155609
vt 0.034689 0.169125
vt 0.079126 0.158085
vt 0.035564 0.173065
vt 0.080976 0.160651
vt 0.036538 0.177022
vt 0.083315 0.163324
vt 0.037605 0.181009
vt 0.086311 0.166115
vt 0.038758 0.185047
vt 0.090245 0.169024
vt 0.039995 0.189173
vt 0.095617 0.172024
vt 0.039313 0.098886
vt 0.095617 0.111058
vt 0.090017 0.114249
vt 0.038150 0.102943
vt 0.086002 0.117293
vt 0.037072 0.106898
vt 0.082990 0.120179
vt 0.036078 0.110796
vt 0.080667 0.122920
vt 0.035174 0.114665
vt 0.078847 0.125537
vt 0.034365 0.118520
vt 0.170551 0.912717
vt 0.166540 0.943186
vt 0.158791 0.941109
vt 0.174563 0.943186
vt 0.182312 0.941109
vt 0.189260 0.937098
vt 0.194933 0.931425
vt 0.198944 0.924477
vt 0.201021 0.916728
vt 0.201021 0.908706
vt 0.198944 0.900956
vt 0.194933 0.894008
vt 0.189260 0.888335
vt 0.182312 0.884324
vt 0.174563 0.882248
vt 0.166540 0.882248
vt 0.158791 0.884324
vt 0.151843 0.888335
vt 0.146170 0.894008
vt 0.142159 0.900956
vt 0.140082 0.908705
vt 0.140082 0.916728
vt 0.142159 0.924477
vt 0.146170 0.931425
vt 0.151843 0.937098
vt 0.094772 0.141719
vt 0.201254 0.920478
vt 0.201918 0.882422
vt 0.201918 0.920652
vt 0.477278 0.177046
vt 0.474876 0.058827
vt 0.040514 0.094813
vt 0.201254 0.882248
vn 0.0000 0.6789 -0.7342
vn 0.2588 0.0000 -0.9659
vn 0.0000 0.0000 -1.0000
vn 0.1900 0.6789 -0.7092
vn 0.5000 0.0000 -0.8660
vn 0.3671 0.6789 -0.6359
vn 0.7071 0.0000 -0.7071
vn 0.5192 0.6789 -0.5192
vn 0.8660 0.0000 -0.5000
vn 0.6359 0.6789 -0.3671
vn 0.9659 0.0000 -0.2588
vn 0.7092 0.6789 -0.1900
vn 1.0000 0.0000 0.0000
vn 0.7342 0.6789 0.0000
vn 0.9659 0.0000 0.2588
vn 0.7092 0.6789 0.1900
vn 0.8660 0.0000 0.5000
vn 0.6359 0.6789 0.3671
vn 0.7071 0.0000 0.7071
vn 0.5192 0.6789 0.5192
vn 0.5000 0.0000 0.8660
vn 0.3671 0.6789 0.6359
vn 0.2588 0.0000 0.9659
vn 0.1900 0.6789 0.7092
vn 0.0000 0.0000 1.0000
vn 0.0000 0.6789 0.7342
vn -0.2588 0.0000 0.9659
vn -0.1900 0.6789 0.7092
vn -0.5000 0.0000 0.8660
vn -0.3671 0.6789 0.6359
vn -0.7071 0.0000 0.7071
vn -0.5192 0.6789 0.5192
vn -0.8660 0.0000 0.5000
vn -0.6359 0.6789 0.3671
vn -0.9659 0.0000 0.2588
vn -0.7092 0.6789 0.1900
vn -1.0000 0.0000 0.0000
vn -0.7342 0.6789 0.0000
vn -0.9659 0.0000 -0.2588
vn -0.7092 0.6789 -0.1900
vn -0.8660 0.0000 -0.5000
vn -0.6359 0.6789 -0.3671
vn -0.7071 0.0000 -0.7071
vn -0.5192 0.6789 -0.5192
vn -0.5000 0.0000 -0.8660
vn 0.6521 0.7377 -0.1747
vn 0.6751 0.7377 0.0000
vn -0.3671 0.6789 -0.6359
vn -0.2588 0.0000 -0.9659
vn -0.1900 0.6789 -0.7092
vn 0.0000 0.7377 -0.6751
vn 0.3375 0.7377 -0.5847
vn 0.1747 0.7377 -0.6521
vn 0.4773 0.7377 -0.4774
vn 0.5847 0.7377 -0.3375
vn 0.5846 0.7377 0.3375
vn 0.6521 0.7377 0.1747
vn 0.4773 0.7377 0.4774
vn 0.3375 0.7377 0.5847
vn 0.1747 0.7377 0.6521
vn 0.0000 0.7377 0.6751
vn -0.1747 0.7377 0.6521
vn -0.3375 0.7377 0.5847
vn -0.5847 0.7377 0.3375
vn -0.4773 0.7377 0.4774
vn -0.6521 0.7377 0.1747
vn -0.6751 0.7377 0.0000
vn -0.5846 0.7377 -0.3375
vn -0.6521 0.7377 -0.1747
vn -0.4773 0.7377 -0.4774
vn -0.3375 0.7377 -0.5847
vn -0.1748 0.7377 -0.6521
vn -0.3670 0.6789 0.6359
vn -0.3670 0.6789 -0.6359
vn 0.0000 -0.6789 -0.7342
vn -0.1900 -0.6789 -0.7092
vn -0.3671 -0.6789 -0.6359
vn -0.5192 -0.6789 -0.5192
vn -0.6359 -0.6789 -0.3671
vn -0.7092 -0.6789 -0.1900
vn -0.7342 -0.6789 0.0000
vn -0.7092 -0.6789 0.1900
vn -0.6359 -0.6789 0.3671
vn -0.5192 -0.6789 0.5192
vn -0.3671 -0.6789 0.6359
vn -0.1900 -0.6789 0.7092
vn 0.0000 -0.6789 0.7342
vn 0.1900 -0.6789 0.7092
vn 0.3671 -0.6789 0.6359
vn 0.5192 -0.6789 0.5192
vn 0.6359 -0.6789 0.3671
vn 0.7092 -0.6789 0.1900
vn 0.5870 -0.6453 -0.4888
vn 0.7092 -0.6789 -0.1900
vn 0.6359 -0.6789 -0.3671
vn 0.5192 -0.6789 -0.5192
vn 0.3672 -0.6789 -0.6358
vn 0.1900 -0.6789 -0.7092
vn 0.0000 1.0000 0.0000
vn 0.0000 -0.9972 -0.0751
vn 0.0000 -0.2053 -0.9787
vn 0.0000 -0.2054 -0.9787
g Cylinder_Cylinder_Pilha
usemtl Pilha
s 1
f 29/1/1 54/2/2 53/3/3
f 28/4/4 55/5/5 54/2/2
f 30/6/6 56/7/7 55/5/5
f 31/8/8 57/9/9 56/7/7
f 32/10/10 58/11/11 57/9/9
f 33/12/12 59/13/13 58/11/11
f 34/14/14 60/15/15 59/16/13
f 35/17/16 61/18/17 60/15/15
f 36/19/18 62/20/19 61/18/17
f 37/21/20 63/22/21 62/20/19
f 38/23/22 64/24/23 63/22/21
f 39/25/24 65/26/25 64/24/23
f 40/27/26 66/28/27 65/26/25
f 41/29/28 67/30/29 66/28/27
f 42/31/30 68/32/31 67/30/29
f 43/33/32 69/34/33 68/32/31
f 44/35/34 70/36/35 69/34/33
f 45/37/36 71/38/37 70/36/35
f 46/39/38 72/40/39 71/38/37
f 47/41/40 73/42/41 72/40/39
f 48/43/42 74/44/43 73/42/41
f 49/45/44 75/46/45 74/44/43
f 7/47/46 83/48/14 8/49/47
f 50/50/48 76/51/49 75/46/45
f 51/52/50 53/3/3 76/51/49
f 2/53/51 28/4/4 29/1/1
f 4/54/52 28/4/4 3/55/53
f 5/56/54 30/6/6 4/54/52
f 6/57/55 31/8/8 5/56/54
f 6/57/55 33/12/12 32/10/10
f 7/58/46 34/59/14 33/12/12
f 8/60/47 35/17/16 34/14/14
f 10/61/56 35/17/16 9/62/57
f 11/63/58 36/19/18 10/61/56
f 12/64/59 37/21/20 11/63/58
f 13/65/60 38/23/22 12/64/59
f 14/66/61 39/25/24 13/65/60
f 15/67/62 40/27/26 14/66/61
f 16/68/63 41/29/28 15/67/62
f 16/68/63 43/33/32 42/31/30
f 18/69/64 43/33/32 17/70/65
f 19/71/66 44/35/34 18/69/64
f 20/72/67 45/37/36 19/71/66
f 20/72/67 47/41/40 46/39/38
f 22/73/68 47/41/40 21/74/69
f 23/75/70 48/43/42 22/73/68
f 25/76/71 49/45/44 23/75/70
f 25/76/71 51/52/50 50/50/48
f 2/53/51 51/52/50 27/77/72
f 22/78/68 98/79/44 23/80/70
f 16/81/63 90/82/28 91/83/73
f 9/84/57 83/85/14 84/86/16
f 25/87/71 98/79/44 99/88/74
f 16/81/63 92/89/32 17/90/65
f 9/84/57 85/91/18 10/92/56
f 25/87/71 100/93/50 27/94/72
f 2/95/51 77/96/4 3/97/53
f 17/90/65 93/98/34 18/99/64
f 10/92/56 86/100/20 11/101/58
f 2/95/51 100/93/50 78/102/1
f 3/97/53 79/103/6 4/104/52
f 18/99/64 94/105/36 19/106/66
f 11/101/58 87/107/22 12/108/59
f 4/104/52 80/109/8 5/110/54
f 19/106/66 95/111/38 20/112/67
f 13/113/60 87/107/22 88/114/24
f 5/110/54 81/115/10 6/116/55
f 20/112/67 96/117/40 21/118/69
f 14/119/61 88/114/24 89/120/26
f 6/116/55 82/121/12 7/47/46
f 21/118/69 97/122/42 22/78/68
f 15/123/62 89/120/26 90/82/28
f 76/124/49 101/125/75 124/126/76
f 75/127/45 124/126/76 123/128/77
f 74/129/43 123/128/77 122/130/78
f 73/131/41 122/130/78 121/132/79
f 72/133/39 121/132/79 120/134/80
f 71/135/37 120/134/80 119/136/81
f 70/137/35 119/136/81 118/138/82
f 69/139/33 118/138/82 117/140/83
f 68/141/31 117/140/83 116/142/84
f 67/143/29 116/142/84 115/144/85
f 66/145/27 115/144/85 114/146/86
f 65/147/25 114/146/86 113/148/87
f 64/149/23 113/148/87 112/150/88
f 63/151/21 112/150/88 111/152/89
f 62/153/19 111/152/89 110/154/90
f 61/155/17 110/154/90 109/156/91
f 60/157/15 109/156/91 108/158/92
f 59/159/13 108/158/92 107/160/93
f 58/161/11 107/162/93 106/163/94
f 57/164/9 106/163/94 105/165/95
f 56/166/7 105/165/95 104/167/96
f 55/168/5 104/167/96 103/169/97
f 54/170/2 103/169/97 102/171/98
f 53/172/3 102/171/98 101/125/75
f 52/173/99 77/174/4 78/175/1
f 52/173/99 79/176/6 77/174/4
f 52/173/99 80/177/8 79/176/6
f 52/173/99 81/178/10 80/177/8
f 52/173/99 82/179/12 81/178/10
f 52/173/99 83/180/14 82/179/12
f 52/173/99 84/181/16 83/180/14
f 52/173/99 85/182/18 84/181/16
f 52/173/99 86/183/20 85/182/18
f 52/173/99 87/184/22 86/183/20
f 52/173/99 88/185/24 87/184/22
f 52/173/99 89/186/26 88/185/24
f 52/173/99 90/187/28 89/186/26
f 52/173/99 91/188/73 90/187/28
f 52/173/99 92/189/32 91/188/73
f 52/173/99 93/190/34 92/189/32
f 52/173/99 94/191/36 93/190/34
f 52/173/99 95/192/38 94/191/36
f 52/173/99 96/193/40 95/192/38
f 52/173/99 97/194/42 96/193/40
f 52/173/99 98/195/44 97/194/42
f 52/173/99 99/196/74 98/195/44
f 52/173/99 100/197/50 99/196/74
f 52/173/99 78/175/1 100/197/50
f 1/198/100 101/125/75 102/171/98
f 1/198/100 102/171/98 103/169/97
f 1/198/100 103/169/97 104/167/96
f 1/198/100 104/167/96 105/165/95
f 1/198/100 105/165/95 106/163/94
f 1/198/100 106/163/94 107/162/93
f 1/198/100 107/160/93 108/158/92
f 1/198/100 108/158/92 109/156/91
f 1/198/100 109/156/91 110/154/90
f 1/198/100 110/154/90 111/152/89
f 1/198/100 111/152/89 112/150/88
f 1/198/100 112/150/88 113/148/87
f 1/198/100 113/148/87 114/146/86
f 1/198/100 114/146/86 115/144/85
f 1/198/100 115/144/85 116/142/84
f 1/198/100 116/142/84 117/140/83
f 1/198/100 117/140/83 118/138/82
f 1/198/100 118/138/82 119/136/81
f 1/198/100 119/136/81 120/134/80
f 1/198/100 120/134/80 121/132/79
f 1/198/100 121/132/79 122/130/78
f 1/198/100 122/130/78 123/128/77
f 1/198/100 123/128/77 124/126/76
f 1/198/100 124/126/76 101/125/75
f 107/199/93 26/200/101 24/201/102
f 29/1/1 28/4/4 54/2/2
f 28/4/4 30/6/6 55/5/5
f 30/6/6 31/8/8 56/7/7
f 31/8/8 32/10/10 57/9/9
f 32/10/10 33/12/12 58/11/11
f 33/12/12 34/59/14 59/13/13
f 34/14/14 35/17/16 60/15/15
f 35/17/16 36/19/18 61/18/17
f 36/19/18 37/21/20 62/20/19
f 37/21/20 38/23/22 63/22/21
f 38/23/22 39/25/24 64/24/23
f 39/25/24 40/27/26 65/26/25
f 40/27/26 41/29/28 66/28/27
f 41/29/28 42/31/30 67/30/29
f 42/31/30 43/33/32 68/32/31
f 43/33/32 44/35/34 69/34/33
f 44/35/34 45/37/36 70/36/35
f 45/37/36 46/39/38 71/38/37
f 46/39/38 47/41/40 72/40/39
f 47/41/40 48/43/42 73/42/41
f 48/43/42 49/45/44 74/44/43
f 49/45/44 50/50/48 75/46/45
f 7/47/46 82/121/12 83/48/14
f 50/50/48 51/52/50 76/51/49
f 51/52/50 29/1/1 53/3/3
f 2/53/51 3/55/53 28/4/4
f 4/54/52 30/6/6 28/4/4
f 5/56/54 31/8/8 30/6/6
f 6/57/55 32/10/10 31/8/8
f 6/57/55 7/58/46 33/12/12
f 7/58/46 8/202/47 34/59/14
f 8/60/47 9/62/57 35/17/16
f 10/61/56 36/19/18 35/17/16
f 11/63/58 37/21/20 36/19/18
f 12/64/59 38/23/22 37/21/20
f 13/65/60 39/25/24 38/23/22
f 14/66/61 40/27/26 39/25/24
f 15/67/62 41/29/28 40/27/26
f 16/68/63 42/31/30 41/29/28
f 16/68/63 17/70/65 43/33/32
f 18/69/64 44/35/34 43/33/32
f 19/71/66 45/37/36 44/35/34
f 20/72/67 46/39/38 45/37/36
f 20/72/67 21/74/69 47/41/40
f 22/73/68 48/43/42 47/41/40
f 23/75/70 49/45/44 48/43/42
f 25/76/71 50/50/48 49/45/44
f 25/76/71 27/77/72 51/52/50
f 2/53/51 29/1/1 51/52/50
f 22/78/68 97/122/42 98/79/44
f 16/81/63 15/123/62 90/82/28
f 9/84/57 8/203/47 83/85/14
f 25/87/71 23/80/70 98/79/44
f 16/81/63 91/83/73 92/89/32
f 9/84/57 84/86/16 85/91/18
f 25/87/71 99/88/74 100/93/50
f 2/95/51 78/102/1 77/96/4
f 17/90/65 92/89/32 93/98/34
f 10/92/56 85/91/18 86/100/20
f 2/95/51 27/94/72 100/93/50
f 3/97/53 77/96/4 79/103/6
f 18/99/64 93/98/34 94/105/36
f 11/101/58 86/100/20 87/107/22
f 4/104/52 79/103/6 80/109/8
f 19/106/66 94/105/36 95/111/38
f 13/113/60 12/108/59 87/107/22
f 5/110/54 80/109/8 81/115/10
f 20/112/67 95/111/38 96/117/40
f 14/119/61 13/113/60 88/114/24
f 6/116/55 81/115/10 82/121/12
f 21/118/69 96/117/40 97/122/42
f 15/123/62 14/119/61 89/120/26
f 76/124/49 53/172/3 101/125/75
f 75/127/45 76/124/49 124/126/76
f 74/129/43 75/127/45 123/128/77
f 73/131/41 74/129/43 122/130/78
f 72/133/39 73/131/41 121/132/79
f 71/135/37 72/133/39 120/134/80
f 70/137/35 71/135/37 119/136/81
f 69/139/33 70/137/35 118/138/82
f 68/141/31 69/139/33 117/140/83
f 67/143/29 68/141/31 116/142/84
f 66/145/27 67/143/29 115/144/85
f 65/147/25 66/145/27 114/146/86
f 64/149/23 65/147/25 113/148/87
f 63/151/21 64/149/23 112/150/88
f 62/153/19 63/151/21 111/152/89
f 61/155/17 62/153/19 110/154/90
f 60/157/15 61/155/17 109/156/91
f 59/159/13 60/157/15 108/158/92
f 58/161/11 59/204/13 107/162/93
f 57/164/9 58/161/11 106/163/94
f 56/166/7 57/164/9 105/165/95
f 55/168/5 56/166/7 104/167/96
f 54/170/2 55/168/5 103/169/97
f 53/172/3 54/170/2 102/171/98
f 107/199/93 1/205/100 26/200/101
