# Blender v2.92.0 OBJ File: 'mine-maze-s.blend'
# www.blender.org
mtllib battery7.mtl
o Cylinder.008
v -23.911995 1.214600 -17.846903
v -23.911995 2.039258 -17.893929
v -23.899824 2.039258 -17.892326
v -23.888481 2.039258 -17.887629
v -23.878742 2.039258 -17.880156
v -23.871269 2.039258 -17.870417
v -23.866571 2.039258 -17.859074
v -23.864969 2.039258 -17.846903
v -23.866571 2.039258 -17.834732
v -23.871269 2.039258 -17.823389
v -23.878742 2.039258 -17.813650
v -23.888481 2.039258 -17.806177
v -23.899824 2.039258 -17.801479
v -23.911995 2.039258 -17.799877
v -23.924166 2.039258 -17.801479
v -23.935509 2.039258 -17.806177
v -23.945248 2.039258 -17.813650
v -23.952721 2.039258 -17.823389
v -23.957418 2.039258 -17.834732
v -23.959021 2.039258 -17.846903
v -23.957418 2.039258 -17.859074
v -23.952721 2.039258 -17.870417
v -23.945248 2.039258 -17.880156
v -23.751301 1.214964 -17.846979
v -23.935509 2.039258 -17.887629
v -23.911301 1.214964 -17.846979
v -23.924166 2.039258 -17.892326
v -23.870584 2.039258 -18.001451
v -23.911995 2.039258 -18.006903
v -23.831995 2.039258 -17.985466
v -23.798859 2.039258 -17.960039
v -23.773432 2.039258 -17.926903
v -23.757446 2.039258 -17.888313
v -23.751995 2.039258 -17.846903
v -23.757446 2.039258 -17.805492
v -23.773432 2.039258 -17.766903
v -23.798859 2.039258 -17.733767
v -23.831995 2.039258 -17.708340
v -23.870584 2.039258 -17.692354
v -23.911995 2.039258 -17.686903
v -23.953405 2.039258 -17.692354
v -23.991995 2.039258 -17.708340
v -24.025131 2.039258 -17.733767
v -24.050558 2.039258 -17.766903
v -24.066544 2.039258 -17.805492
v -24.071995 2.039258 -17.846903
v -24.066544 2.039258 -17.888313
v -24.050560 2.039258 -17.926903
v -24.025131 2.039258 -17.960039
v -23.991995 2.039258 -17.985466
v -23.953405 2.039258 -18.001451
v -23.911995 2.063675 -17.846903
v -23.911995 1.779643 -18.006903
v -23.870584 1.779643 -18.001451
v -23.831995 1.779643 -17.985466
v -23.798859 1.779643 -17.960039
v -23.773432 1.779643 -17.926903
v -23.757446 1.779643 -17.888313
v -23.751995 1.779643 -17.846903
v -23.757446 1.779643 -17.805492
v -23.773432 1.779643 -17.766903
v -23.798859 1.779643 -17.733767
v -23.831995 1.779643 -17.708340
v -23.870584 1.779643 -17.692354
v -23.911995 1.779643 -17.686903
v -23.953405 1.779643 -17.692354
v -23.991995 1.779643 -17.708340
v -24.025131 1.779643 -17.733767
v -24.050558 1.779643 -17.766903
v -24.066544 1.779643 -17.805492
v -24.071995 1.779643 -17.846903
v -24.066544 1.779643 -17.888313
v -24.050560 1.779643 -17.926903
v -24.025131 1.779643 -17.960039
v -23.991995 1.779643 -17.985466
v -23.953405 1.779643 -18.001451
v -23.899824 2.063675 -17.892326
v -23.911995 2.063675 -17.893929
v -23.888481 2.063675 -17.887629
v -23.878742 2.063675 -17.880156
v -23.871269 2.063675 -17.870417
v -23.866571 2.063675 -17.859074
v -23.864969 2.063675 -17.846903
v -23.866571 2.063675 -17.834732
v -23.871269 2.063675 -17.823389
v -23.878742 2.063675 -17.813650
v -23.888481 2.063675 -17.806177
v -23.899824 2.063675 -17.801479
v -23.911995 2.063675 -17.799877
v -23.924166 2.063675 -17.801479
v -23.935509 2.063675 -17.806177
v -23.945248 2.063675 -17.813650
v -23.952721 2.063675 -17.823389
v -23.957418 2.063675 -17.834732
v -23.959021 2.063675 -17.846903
v -23.957418 2.063675 -17.859074
v -23.952721 2.063675 -17.870417
v -23.945248 2.063675 -17.880156
v -23.935509 2.063675 -17.887629
v -23.924166 2.063675 -17.892326
v -23.911995 1.214600 -18.006903
v -23.870584 1.214600 -18.001451
v -23.831995 1.214600 -17.985466
v -23.798859 1.214600 -17.960039
v -23.773432 1.214600 -17.926903
v -23.757446 1.214600 -17.888313
v -23.751995 1.214600 -17.846903
v -23.757446 1.214600 -17.805492
v -23.773432 1.214600 -17.766903
v -23.798859 1.214600 -17.733767
v -23.831995 1.214600 -17.708340
v -23.870584 1.214600 -17.692354
v -23.911995 1.214600 -17.686903
v -23.953405 1.214600 -17.692354
v -23.991995 1.214600 -17.708340
v -24.025131 1.214600 -17.733767
v -24.050558 1.214600 -17.766903
v -24.066544 1.214600 -17.805492
v -24.071995 1.214600 -17.846903
v -24.066544 1.214600 -17.888313
v -24.050560 1.214600 -17.926903
v -24.025131 1.214600 -17.960039
v -23.991995 1.214600 -17.985466
v -23.953405 1.214600 -18.001451
vt 0.438852 0.159253
vt 0.415589 0.172223
vt 0.414055 0.167319
vt 0.440449 0.162355
vt 0.417445 0.177100
vt 0.442435 0.165470
vt 0.419604 0.181941
vt 0.444881 0.168607
vt 0.422037 0.186746
vt 0.447898 0.171783
vt 0.424710 0.191524
vt 0.451672 0.175025
vt 0.427577 0.196302
vt 0.458289 0.100619
vt 0.436084 0.093552
vt 0.439380 0.090124
vt 0.455743 0.112666
vt 0.432807 0.097063
vt 0.451859 0.114836
vt 0.429689 0.100616
vt 0.448676 0.117095
vt 0.426747 0.104261
vt 0.446000 0.119436
vt 0.424003 0.108025
vt 0.443722 0.121857
vt 0.421479 0.111924
vt 0.441774 0.124361
vt 0.419195 0.115965
vt 0.440117 0.126946
vt 0.417172 0.120147
vt 0.438729 0.129612
vt 0.415425 0.124466
vt 0.437594 0.132353
vt 0.413970 0.128912
vt 0.436707 0.135165
vt 0.412820 0.133473
vt 0.436065 0.138041
vt 0.411988 0.138136
vt 0.435669 0.140972
vt 0.411482 0.142885
vt 0.435524 0.143950
vt 0.411312 0.147704
vt 0.435634 0.146966
vt 0.411482 0.152574
vt 0.436008 0.150011
vt 0.411996 0.157478
vt 0.458958 0.102135
vt 0.461491 0.103409
vt 0.458958 0.103409
vt 0.436658 0.153078
vt 0.412854 0.162399
vt 0.437599 0.156160
vt 0.451955 0.152597
vt 0.454119 0.155585
vt 0.452949 0.154144
vt 0.455472 0.156890
vt 0.457017 0.158021
vt 0.458762 0.158926
vt 0.456530 0.178380
vt 0.460719 0.127196
vt 0.457266 0.128038
vt 0.458932 0.127435
vt 0.455780 0.128899
vt 0.454464 0.129961
vt 0.453309 0.131181
vt 0.452308 0.132531
vt 0.451459 0.133987
vt 0.450756 0.135530
vt 0.449790 0.138816
vt 0.450200 0.137145
vt 0.449527 0.140530
vt 0.449412 0.142275
vt 0.449633 0.145801
vt 0.449446 0.144036
vt 0.449974 0.147555
vt 0.450472 0.149283
vt 0.451131 0.150970
vt 0.458958 0.090672
vt 0.461491 0.091946
vt 0.458958 0.091946
vt 0.458958 0.083030
vt 0.461491 0.081757
vt 0.461491 0.083030
vt 0.458958 0.074115
vt 0.461491 0.072841
vt 0.461491 0.074115
vt 0.458958 0.093220
vt 0.461491 0.093220
vt 0.461491 0.084304
vt 0.458958 0.084304
vt 0.461491 0.075388
vt 0.458958 0.075388
vt 0.461491 0.094493
vt 0.458958 0.094493
vt 0.458958 0.095767
vt 0.461491 0.097041
vt 0.458958 0.097041
vt 0.461491 0.085578
vt 0.458958 0.085578
vt 0.461491 0.076662
vt 0.458958 0.076662
vt 0.461491 0.095767
vt 0.461491 0.098314
vt 0.458958 0.098314
vt 0.461491 0.086851
vt 0.458958 0.086851
vt 0.461491 0.077936
vt 0.458958 0.077936
vt 0.461491 0.099588
vt 0.458958 0.099588
vt 0.461491 0.088125
vt 0.458958 0.088125
vt 0.458958 0.079209
vt 0.461491 0.079209
vt 0.461491 0.100862
vt 0.458958 0.100862
vt 0.461491 0.089399
vt 0.458958 0.089399
vt 0.458958 0.080483
vt 0.461491 0.080483
vt 0.461491 0.102135
vt 0.461491 0.090672
vt 0.458958 0.081757
vt 0.047579 0.098451
vt 0.083699 0.103137
vt 0.082775 0.105140
vt 0.047086 0.101633
vt 0.082066 0.107087
vt 0.046688 0.104822
vt 0.081544 0.108989
vt 0.046390 0.108017
vt 0.081188 0.110859
vt 0.046194 0.111221
vt 0.080986 0.112708
vt 0.046105 0.114431
vt 0.080930 0.114545
vt 0.046122 0.117648
vt 0.081019 0.116380
vt 0.046247 0.120871
vt 0.081254 0.118224
vt 0.046480 0.124098
vt 0.081643 0.120086
vt 0.046817 0.127329
vt 0.082199 0.121977
vt 0.047258 0.130563
vt 0.082942 0.123907
vt 0.047797 0.133801
vt 0.083899 0.125887
vt 0.048430 0.137045
vt 0.085112 0.127931
vt 0.049152 0.140297
vt 0.086639 0.130049
vt 0.049956 0.143563
vt 0.088570 0.132256
vt 0.050837 0.146855
vt 0.091043 0.134559
vt 0.051789 0.150188
vt 0.094290 0.136961
vt 0.052810 0.153594
vt 0.098725 0.139437
vt 0.052247 0.079064
vt 0.098725 0.089111
vt 0.094103 0.091745
vt 0.051287 0.082413
vt 0.090788 0.094258
vt 0.050397 0.085677
vt 0.088302 0.096641
vt 0.049577 0.088895
vt 0.086384 0.098903
vt 0.048830 0.092089
vt 0.084881 0.101063
vt 0.048162 0.095271
vt 0.943848 0.938952
vt 0.938908 0.976482
vt 0.929362 0.973925
vt 0.948789 0.976482
vt 0.958335 0.973925
vt 0.966892 0.968984
vt 0.973880 0.961996
vt 0.978821 0.953438
vt 0.981378 0.943893
vt 0.981378 0.934012
vt 0.978821 0.924466
vt 0.973880 0.915908
vt 0.966892 0.908921
vt 0.958335 0.903980
vt 0.948789 0.901422
vt 0.938908 0.901422
vt 0.929362 0.903980
vt 0.920805 0.908921
vt 0.913817 0.915908
vt 0.908876 0.924466
vt 0.906318 0.934012
vt 0.906318 0.943893
vt 0.908876 0.953438
vt 0.913817 0.961996
vt 0.920804 0.968984
vt 0.098027 0.114421
vt 0.981666 0.948512
vt 0.982484 0.901637
vt 0.982484 0.948726
vt 0.460719 0.159531
vt 0.458958 0.072841
vt 0.053238 0.075701
vt 0.981666 0.901422
vn 0.0000 0.6789 -0.7342
vn 0.2588 0.0000 -0.9659
vn 0.0000 0.0000 -1.0000
vn 0.1900 0.6789 -0.7092
vn 0.5000 0.0000 -0.8660
vn 0.3671 0.6789 -0.6359
vn 0.7071 0.0000 -0.7071
vn 0.5192 0.6789 -0.5192
vn 0.8660 0.0000 -0.5000
vn 0.6359 0.6789 -0.3671
vn 0.9659 0.0000 -0.2588
vn 0.7092 0.6789 -0.1900
vn 1.0000 0.0000 0.0000
vn 0.7342 0.6789 0.0000
vn 0.9659 0.0000 0.2588
vn 0.7092 0.6789 0.1900
vn 0.8660 0.0000 0.5000
vn 0.6359 0.6789 0.3671
vn 0.7071 0.0000 0.7071
vn 0.5192 0.6789 0.5192
vn 0.5000 0.0000 0.8660
vn 0.3672 0.6789 0.6359
vn 0.2588 0.0000 0.9659
vn 0.1900 0.6789 0.7092
vn 0.0000 0.0000 1.0000
vn 0.0000 0.6789 0.7342
vn -0.2588 0.0000 0.9659
vn -0.1900 0.6789 0.7092
vn -0.5000 0.0000 0.8660
vn -0.3671 0.6789 0.6359
vn -0.7071 0.0000 0.7071
vn -0.5192 0.6789 0.5192
vn -0.8660 0.0000 0.5000
vn -0.6359 0.6789 0.3671
vn -0.9659 0.0000 0.2588
vn -0.7092 0.6789 0.1900
vn -1.0000 0.0000 0.0000
vn -0.7342 0.6789 0.0000
vn -0.9659 0.0000 -0.2588
vn -0.7092 0.6789 -0.1900
vn -0.8660 0.0000 -0.5000
vn -0.6359 0.6789 -0.3671
vn -0.7071 0.0000 -0.7071
vn -0.5192 0.6789 -0.5192
vn -0.5000 0.0000 -0.8660
vn 0.6521 0.7377 -0.1747
vn 0.6751 0.7377 0.0000
vn -0.3671 0.6789 -0.6359
vn -0.2588 0.0000 -0.9659
vn -0.1900 0.6789 -0.7092
vn 0.0000 0.7377 -0.6751
vn 0.3375 0.7377 -0.5847
vn 0.1747 0.7377 -0.6521
vn 0.4773 0.7377 -0.4774
vn 0.5846 0.7377 -0.3375
vn 0.5846 0.7377 0.3376
vn 0.6521 0.7377 0.1747
vn 0.4773 0.7377 0.4774
vn 0.3375 0.7377 0.5847
vn 0.1747 0.7377 0.6521
vn -0.0000 0.7377 0.6751
vn -0.1747 0.7377 0.6521
vn -0.3376 0.7377 0.5846
vn -0.5847 0.7377 0.3375
vn -0.4774 0.7377 0.4773
vn -0.6521 0.7377 0.1747
vn -0.6751 0.7377 0.0000
vn -0.5846 0.7377 -0.3376
vn -0.6521 0.7377 -0.1747
vn -0.4774 0.7377 -0.4774
vn -0.3375 0.7377 -0.5847
vn -0.1747 0.7377 -0.6521
vn -0.3670 0.6789 0.6359
vn 0.1901 0.6789 -0.7092
vn 0.3671 0.6789 0.6359
vn 0.1901 0.6789 0.7092
vn 0.0000 -0.6789 -0.7342
vn -0.1900 -0.6789 -0.7092
vn -0.3671 -0.6789 -0.6359
vn -0.5192 -0.6789 -0.5192
vn -0.6359 -0.6789 -0.3671
vn -0.7092 -0.6789 -0.1900
vn -0.7342 -0.6789 0.0000
vn -0.7092 -0.6789 0.1900
vn -0.6359 -0.6789 0.3671
vn -0.5192 -0.6789 0.5192
vn -0.3671 -0.6789 0.6359
vn -0.1900 -0.6789 0.7092
vn 0.0000 -0.6789 0.7342
vn 0.1900 -0.6789 0.7092
vn 0.3671 -0.6789 0.6359
vn 0.5192 -0.6789 0.5192
vn 0.6359 -0.6789 0.3671
vn 0.7092 -0.6789 0.1900
vn 0.5870 -0.6453 -0.4888
vn 0.7092 -0.6789 -0.1900
vn 0.6359 -0.6789 -0.3671
vn 0.5192 -0.6789 -0.5192
vn 0.3671 -0.6789 -0.6359
vn 0.1900 -0.6789 -0.7092
vn 0.0000 1.0000 0.0000
vn 0.0000 -0.9972 -0.0751
vn 0.0000 -0.2053 -0.9787
vn 0.0000 -0.2054 -0.9787
g Cylinder.008_Cylinder.008_Pilha.006
usemtl Pilha.006
s 1
f 29/1/1 54/2/2 53/3/3
f 28/4/4 55/5/5 54/2/2
f 30/6/6 56/7/7 55/5/5
f 31/8/8 57/9/9 56/7/7
f 32/10/10 58/11/11 57/9/9
f 33/12/12 59/13/13 58/11/11
f 34/14/14 60/15/15 59/16/13
f 35/17/16 61/18/17 60/15/15
f 36/19/18 62/20/19 61/18/17
f 37/21/20 63/22/21 62/20/19
f 38/23/22 64/24/23 63/22/21
f 39/25/24 65/26/25 64/24/23
f 40/27/26 66/28/27 65/26/25
f 41/29/28 67/30/29 66/28/27
f 42/31/30 68/32/31 67/30/29
f 43/33/32 69/34/33 68/32/31
f 44/35/34 70/36/35 69/34/33
f 45/37/36 71/38/37 70/36/35
f 46/39/38 72/40/39 71/38/37
f 47/41/40 73/42/41 72/40/39
f 48/43/42 74/44/43 73/42/41
f 49/45/44 75/46/45 74/44/43
f 7/47/46 83/48/14 8/49/47
f 50/50/48 76/51/49 75/46/45
f 51/52/50 53/3/3 76/51/49
f 2/53/51 28/4/4 29/1/1
f 4/54/52 28/4/4 3/55/53
f 5/56/54 30/6/6 4/54/52
f 6/57/55 31/8/8 5/56/54
f 6/57/55 33/12/12 32/10/10
f 7/58/46 34/59/14 33/12/12
f 8/60/47 35/17/16 34/14/14
f 10/61/56 35/17/16 9/62/57
f 11/63/58 36/19/18 10/61/56
f 12/64/59 37/21/20 11/63/58
f 13/65/60 38/23/22 12/64/59
f 14/66/61 39/25/24 13/65/60
f 15/67/62 40/27/26 14/66/61
f 16/68/63 41/29/28 15/67/62
f 16/68/63 43/33/32 42/31/30
f 18/69/64 43/33/32 17/70/65
f 19/71/66 44/35/34 18/69/64
f 20/72/67 45/37/36 19/71/66
f 20/72/67 47/41/40 46/39/38
f 22/73/68 47/41/40 21/74/69
f 23/75/70 48/43/42 22/73/68
f 25/76/71 49/45/44 23/75/70
f 25/76/71 51/52/50 50/50/48
f 2/53/51 51/52/50 27/77/72
f 22/78/68 98/79/44 23/80/70
f 16/81/63 90/82/28 91/83/73
f 9/84/57 83/85/14 84/86/16
f 25/87/71 98/79/44 99/88/48
f 16/81/63 92/89/32 17/90/65
f 9/84/57 85/91/18 10/92/56
f 25/87/71 100/93/50 27/94/72
f 2/95/51 77/96/74 3/97/53
f 17/90/65 93/98/34 18/99/64
f 10/92/56 86/100/20 11/101/58
f 2/95/51 100/93/50 78/102/1
f 3/97/53 79/103/6 4/104/52
f 18/99/64 94/105/36 19/106/66
f 11/101/58 87/107/75 12/108/59
f 4/104/52 80/109/8 5/110/54
f 19/106/66 95/111/38 20/112/67
f 13/113/60 87/107/75 88/114/76
f 5/110/54 81/115/10 6/116/55
f 20/112/67 96/117/40 21/118/69
f 14/119/61 88/114/76 89/120/26
f 6/116/55 82/121/12 7/47/46
f 21/118/69 97/122/42 22/78/68
f 15/123/62 89/120/26 90/82/28
f 76/124/49 101/125/77 124/126/78
f 75/127/45 124/126/78 123/128/79
f 74/129/43 123/128/79 122/130/80
f 73/131/41 122/130/80 121/132/81
f 72/133/39 121/132/81 120/134/82
f 71/135/37 120/134/82 119/136/83
f 70/137/35 119/136/83 118/138/84
f 69/139/33 118/138/84 117/140/85
f 68/141/31 117/140/85 116/142/86
f 67/143/29 116/142/86 115/144/87
f 66/145/27 115/144/87 114/146/88
f 65/147/25 114/146/88 113/148/89
f 64/149/23 113/148/89 112/150/90
f 63/151/21 112/150/90 111/152/91
f 62/153/19 111/152/91 110/154/92
f 61/155/17 110/154/92 109/156/93
f 60/157/15 109/156/93 108/158/94
f 59/159/13 108/158/94 107/160/95
f 58/161/11 107/162/95 106/163/96
f 57/164/9 106/163/96 105/165/97
f 56/166/7 105/165/97 104/167/98
f 55/168/5 104/167/98 103/169/99
f 54/170/2 103/169/99 102/171/100
f 53/172/3 102/171/100 101/125/77
f 52/173/101 77/174/74 78/175/1
f 52/173/101 79/176/6 77/174/74
f 52/173/101 80/177/8 79/176/6
f 52/173/101 81/178/10 80/177/8
f 52/173/101 82/179/12 81/178/10
f 52/173/101 83/180/14 82/179/12
f 52/173/101 84/181/16 83/180/14
f 52/173/101 85/182/18 84/181/16
f 52/173/101 86/183/20 85/182/18
f 52/173/101 87/184/75 86/183/20
f 52/173/101 88/185/76 87/184/75
f 52/173/101 89/186/26 88/185/76
f 52/173/101 90/187/28 89/186/26
f 52/173/101 91/188/73 90/187/28
f 52/173/101 92/189/32 91/188/73
f 52/173/101 93/190/34 92/189/32
f 52/173/101 94/191/36 93/190/34
f 52/173/101 95/192/38 94/191/36
f 52/173/101 96/193/40 95/192/38
f 52/173/101 97/194/42 96/193/40
f 52/173/101 98/195/44 97/194/42
f 52/173/101 99/196/48 98/195/44
f 52/173/101 100/197/50 99/196/48
f 52/173/101 78/175/1 100/197/50
f 1/198/102 101/125/77 102/171/100
f 1/198/102 102/171/100 103/169/99
f 1/198/102 103/169/99 104/167/98
f 1/198/102 104/167/98 105/165/97
f 1/198/102 105/165/97 106/163/96
f 1/198/102 106/163/96 107/162/95
f 1/198/102 107/160/95 108/158/94
f 1/198/102 108/158/94 109/156/93
f 1/198/102 109/156/93 110/154/92
f 1/198/102 110/154/92 111/152/91
f 1/198/102 111/152/91 112/150/90
f 1/198/102 112/150/90 113/148/89
f 1/198/102 113/148/89 114/146/88
f 1/198/102 114/146/88 115/144/87
f 1/198/102 115/144/87 116/142/86
f 1/198/102 116/142/86 117/140/85
f 1/198/102 117/140/85 118/138/84
f 1/198/102 118/138/84 119/136/83
f 1/198/102 119/136/83 120/134/82
f 1/198/102 120/134/82 121/132/81
f 1/198/102 121/132/81 122/130/80
f 1/198/102 122/130/80 123/128/79
f 1/198/102 123/128/79 124/126/78
f 1/198/102 124/126/78 101/125/77
f 107/199/95 26/200/103 24/201/104
f 29/1/1 28/4/4 54/2/2
f 28/4/4 30/6/6 55/5/5
f 30/6/6 31/8/8 56/7/7
f 31/8/8 32/10/10 57/9/9
f 32/10/10 33/12/12 58/11/11
f 33/12/12 34/59/14 59/13/13
f 34/14/14 35/17/16 60/15/15
f 35/17/16 36/19/18 61/18/17
f 36/19/18 37/21/20 62/20/19
f 37/21/20 38/23/22 63/22/21
f 38/23/22 39/25/24 64/24/23
f 39/25/24 40/27/26 65/26/25
f 40/27/26 41/29/28 66/28/27
f 41/29/28 42/31/30 67/30/29
f 42/31/30 43/33/32 68/32/31
f 43/33/32 44/35/34 69/34/33
f 44/35/34 45/37/36 70/36/35
f 45/37/36 46/39/38 71/38/37
f 46/39/38 47/41/40 72/40/39
f 47/41/40 48/43/42 73/42/41
f 48/43/42 49/45/44 74/44/43
f 49/45/44 50/50/48 75/46/45
f 7/47/46 82/121/12 83/48/14
f 50/50/48 51/52/50 76/51/49
f 51/52/50 29/1/1 53/3/3
f 2/53/51 3/55/53 28/4/4
f 4/54/52 30/6/6 28/4/4
f 5/56/54 31/8/8 30/6/6
f 6/57/55 32/10/10 31/8/8
f 6/57/55 7/58/46 33/12/12
f 7/58/46 8/202/47 34/59/14
f 8/60/47 9/62/57 35/17/16
f 10/61/56 36/19/18 35/17/16
f 11/63/58 37/21/20 36/19/18
f 12/64/59 38/23/22 37/21/20
f 13/65/60 39/25/24 38/23/22
f 14/66/61 40/27/26 39/25/24
f 15/67/62 41/29/28 40/27/26
f 16/68/63 42/31/30 41/29/28
f 16/68/63 17/70/65 43/33/32
f 18/69/64 44/35/34 43/33/32
f 19/71/66 45/37/36 44/35/34
f 20/72/67 46/39/38 45/37/36
f 20/72/67 21/74/69 47/41/40
f 22/73/68 48/43/42 47/41/40
f 23/75/70 49/45/44 48/43/42
f 25/76/71 50/50/48 49/45/44
f 25/76/71 27/77/72 51/52/50
f 2/53/51 29/1/1 51/52/50
f 22/78/68 97/122/42 98/79/44
f 16/81/63 15/123/62 90/82/28
f 9/84/57 8/203/47 83/85/14
f 25/87/71 23/80/70 98/79/44
f 16/81/63 91/83/73 92/89/32
f 9/84/57 84/86/16 85/91/18
f 25/87/71 99/88/48 100/93/50
f 2/95/51 78/102/1 77/96/74
f 17/90/65 92/89/32 93/98/34
f 10/92/56 85/91/18 86/100/20
f 2/95/51 27/94/72 100/93/50
f 3/97/53 77/96/74 79/103/6
f 18/99/64 93/98/34 94/105/36
f 11/101/58 86/100/20 87/107/75
f 4/104/52 79/103/6 80/109/8
f 19/106/66 94/105/36 95/111/38
f 13/113/60 12/108/59 87/107/75
f 5/110/54 80/109/8 81/115/10
f 20/112/67 95/111/38 96/117/40
f 14/119/61 13/113/60 88/114/76
f 6/116/55 81/115/10 82/121/12
f 21/118/69 96/117/40 97/122/42
f 15/123/62 14/119/61 89/120/26
f 76/124/49 53/172/3 101/125/77
f 75/127/45 76/124/49 124/126/78
f 74/129/43 75/127/45 123/128/79
f 73/131/41 74/129/43 122/130/80
f 72/133/39 73/131/41 121/132/81
f 71/135/37 72/133/39 120/134/82
f 70/137/35 71/135/37 119/136/83
f 69/139/33 70/137/35 118/138/84
f 68/141/31 69/139/33 117/140/85
f 67/143/29 68/141/31 116/142/86
f 66/145/27 67/143/29 115/144/87
f 65/147/25 66/145/27 114/146/88
f 64/149/23 65/147/25 113/148/89
f 63/151/21 64/149/23 112/150/90
f 62/153/19 63/151/21 111/152/91
f 61/155/17 62/153/19 110/154/92
f 60/157/15 61/155/17 109/156/93
f 59/159/13 60/157/15 108/158/94
f 58/161/11 59/204/13 107/162/95
f 57/164/9 58/161/11 106/163/96
f 56/166/7 57/164/9 105/165/97
f 55/168/5 56/166/7 104/167/98
f 54/170/2 55/168/5 103/169/99
f 53/172/3 54/170/2 102/171/100
f 107/199/95 1/205/102 26/200/103
