# Blender v2.92.0 OBJ File: 'mine-maze-s.blend'
# www.blender.org
mtllib ouro3.mtl
o Cube_Cube.005
v -5.057303 1.678568 -10.536392
v -4.934999 1.398821 -10.111632
v -4.934999 1.398821 -10.636844
v -6.439600 1.399493 -10.665017
v -5.086196 1.677895 -10.565047
v -4.964479 1.399493 -10.665017
v -6.308974 1.703298 -10.219542
v -5.095108 1.703298 -10.528934
v -6.308974 1.703298 -10.528934
v -4.964479 1.399493 -10.083459
v -6.317883 1.677895 -10.183429
v -6.439600 1.399493 -10.083459
v -6.346776 1.678568 -10.212084
v -6.469081 1.398821 -10.636844
v -6.469081 1.398821 -10.111632
v -4.951179 1.374090 -10.101329
v -5.057303 1.678568 -10.212084
v -5.095108 1.703298 -10.219542
v -5.086196 1.677895 -10.183429
v -6.452903 1.374090 -10.101328
v -4.951179 1.374090 -10.647148
v -6.452903 1.374090 -10.647147
v -6.317883 1.677895 -10.565047
v -6.346776 1.678568 -10.536392
vt 0.715638 0.088315
vt 0.628261 0.175692
vt 0.628261 0.088315
vt 0.628261 0.088315
vt 0.715638 0.175692
vt 0.628261 0.175692
vt 0.715638 0.088315
vt 0.628261 0.175692
vt 0.628261 0.088315
vt 0.628261 0.088315
vt 0.715638 0.175692
vt 0.628261 0.175692
vt 0.715638 0.088315
vt 0.628261 0.175692
vt 0.628261 0.088315
vt 0.628261 0.088315
vt 0.715638 0.088315
vt 0.715638 0.175692
vt 0.628261 0.088315
vt 0.715638 0.088315
vt 0.715638 0.175692
vt 0.628261 0.088315
vt 0.715638 0.088315
vt 0.715638 0.175692
vt 0.628261 0.088315
vt 0.628261 0.088315
vt 0.715638 0.088315
vt 0.715638 0.175692
vt 0.628261 0.088315
vt 0.628261 0.088315
vt 0.715638 0.088315
vt 0.715638 0.175692
vt 0.715638 0.088315
vt 0.715638 0.175692
vt 0.715638 0.088315
vt 0.715638 0.088315
vt 0.628261 0.175692
vt 0.628261 0.088315
vt 0.628261 0.175692
vt 0.628261 0.088315
vt 0.628261 0.088315
vt 0.715638 0.175692
vt 0.628261 0.175692
vt 0.715638 0.088315
vt 0.715638 0.088315
vt 0.628261 0.175692
vt 0.715638 0.088315
vt 0.628261 0.175692
vt 0.628261 0.088315
vt 0.715638 0.088315
vt 0.715638 0.088315
vt 0.628261 0.175692
vt 0.628261 0.088315
vt 0.715638 0.175692
vt 0.628261 0.175692
vt 0.715638 0.088315
vt 0.628261 0.175692
vt 0.628261 0.175692
vt 0.715638 0.175692
vt 0.715638 0.175692
vt 0.715638 0.088315
vt 0.715638 0.088315
vt 0.715638 0.175692
vt 0.715638 0.088315
vt 0.715638 0.175692
vn 0.9163 0.4006 0.0000
vn 0.0000 0.3380 -0.9412
vn 0.0000 1.0000 0.0000
vn 0.0000 0.3380 0.9412
vn -0.9163 0.4006 0.0000
vn 0.6816 -0.1473 0.7167
vn 0.4259 0.7861 0.4479
vn -0.6816 -0.1473 0.7168
vn -0.4259 0.7861 0.4479
vn 0.6816 -0.1473 -0.7168
vn 0.4259 0.7861 -0.4479
vn -0.6816 -0.1473 -0.7167
vn -0.4259 0.7861 -0.4479
vn 0.0000 -0.5754 0.8179
vn 0.0000 -0.5753 0.8179
vn 0.6080 0.4901 0.6246
vn 0.0000 0.8179 0.5753
vn -0.6080 0.4901 0.6246
vn -0.8368 -0.5475 0.0000
vn -0.8369 -0.5474 0.0000
vn -0.5475 0.8368 0.0000
vn -0.5474 0.8368 0.0000
vn -0.6080 0.4901 -0.6246
vn 0.0000 -0.5754 -0.8179
vn 0.0000 -0.5753 -0.8179
vn 0.0000 0.8179 -0.5753
vn 0.6080 0.4901 -0.6246
vn 0.8368 -0.5475 0.0000
vn 0.5474 0.8368 0.0000
vn 0.5474 0.8369 0.0000
vn 0.0000 -1.0000 0.0000
g Cube_Cube.005_Cube_Cube.005_Ouro.004
usemtl Ouro.004
s 1
f 1/1/1 2/2/1 3/3/1
f 4/4/2 5/5/2 6/6/2
f 7/7/3 8/8/3 9/9/3
f 10/10/4 11/11/4 12/12/4
f 13/13/5 14/14/5 15/15/5
f 16/16/6 2/17/6 10/18/6
f 17/19/7 18/20/7 19/21/7
f 20/22/8 12/23/8 15/24/8
f 7/25/9 13/13/9 11/11/9
f 21/26/10 6/27/10 3/28/10
f 8/29/11 1/1/11 5/5/11
f 22/30/12 14/31/12 4/32/12
f 9/9/13 23/33/13 24/34/13
f 16/35/14 12/12/15 20/22/15
f 17/36/16 10/37/16 2/38/16
f 7/7/17 19/39/17 18/40/17
f 13/41/18 12/42/18 11/43/18
f 20/44/19 14/14/20 22/30/20
f 9/45/21 13/46/22 7/25/22
f 4/47/23 24/48/23 23/49/23
f 22/50/24 6/6/25 21/26/25
f 8/51/26 23/52/26 9/9/26
f 1/53/27 6/54/27 5/55/27
f 21/56/28 2/2/28 16/16/28
f 18/20/29 1/57/30 8/29/30
f 22/50/31 16/58/31 20/22/31
f 1/1/1 17/59/1 2/2/1
f 4/4/2 23/33/2 5/5/2
f 7/7/3 18/60/3 8/8/3
f 10/10/4 19/61/4 11/11/4
f 13/13/5 24/34/5 14/14/5
f 16/35/14 10/18/14 12/12/15
f 17/36/16 19/21/16 10/37/16
f 7/7/17 11/11/17 19/39/17
f 13/41/18 15/62/18 12/42/18
f 20/44/19 15/24/19 14/14/20
f 9/45/21 24/34/21 13/46/22
f 4/47/23 14/63/23 24/48/23
f 22/50/24 4/32/24 6/6/25
f 8/51/26 5/5/26 23/52/26
f 1/53/27 3/64/27 6/54/27
f 21/56/28 3/28/28 2/2/28
f 18/20/29 17/59/29 1/57/30
f 22/50/31 21/65/31 16/58/31
