# Blender v2.92.0 OBJ File: 'mine-maze-s.blend'
# www.blender.org
mtllib ouro2.mtl
o Cube_Cube.002
v -13.382959 1.678566 -28.835382
v -12.958200 1.398819 -28.957687
v -13.483411 1.398819 -28.957687
v -13.511584 1.399491 -27.453087
v -13.411614 1.677893 -28.806490
v -13.511584 1.399491 -28.928207
v -13.066109 1.703296 -27.583714
v -13.375502 1.703296 -28.797579
v -13.375502 1.703296 -27.583714
v -12.930026 1.399491 -28.928207
v -13.029996 1.677893 -27.574802
v -12.930026 1.399491 -27.453087
v -13.058651 1.678566 -27.545910
v -13.483411 1.398819 -27.423605
v -12.958200 1.398819 -27.423605
v -12.947896 1.374088 -28.941507
v -13.058651 1.678566 -28.835382
v -13.066109 1.703296 -28.797579
v -13.029996 1.677893 -28.806490
v -12.947895 1.374088 -27.439783
v -13.493715 1.374088 -28.941507
v -13.493714 1.374088 -27.439783
v -13.411614 1.677893 -27.574802
v -13.382959 1.678566 -27.545910
vt 0.715638 0.088315
vt 0.628261 0.175692
vt 0.628261 0.088315
vt 0.628261 0.088315
vt 0.715638 0.175692
vt 0.628261 0.175692
vt 0.715638 0.088315
vt 0.628261 0.175692
vt 0.628261 0.088315
vt 0.628261 0.088315
vt 0.715638 0.175692
vt 0.628261 0.175692
vt 0.715638 0.088315
vt 0.628261 0.175692
vt 0.628261 0.088315
vt 0.628261 0.088315
vt 0.715638 0.088315
vt 0.715638 0.175692
vt 0.628261 0.088315
vt 0.715638 0.088315
vt 0.715638 0.175692
vt 0.628261 0.088315
vt 0.715638 0.088315
vt 0.715638 0.175692
vt 0.628261 0.088315
vt 0.628261 0.088315
vt 0.715638 0.088315
vt 0.715638 0.175692
vt 0.628261 0.088315
vt 0.628261 0.088315
vt 0.715638 0.088315
vt 0.715638 0.175692
vt 0.715638 0.088315
vt 0.715638 0.175692
vt 0.715638 0.088315
vt 0.715638 0.088315
vt 0.628261 0.175692
vt 0.628261 0.088315
vt 0.628261 0.175692
vt 0.628261 0.088315
vt 0.628261 0.088315
vt 0.715638 0.175692
vt 0.628261 0.175692
vt 0.715638 0.088315
vt 0.715638 0.088315
vt 0.628261 0.175692
vt 0.715638 0.088315
vt 0.628261 0.175692
vt 0.628261 0.088315
vt 0.715638 0.088315
vt 0.715638 0.088315
vt 0.628261 0.175692
vt 0.628261 0.088315
vt 0.715638 0.175692
vt 0.628261 0.175692
vt 0.715638 0.088315
vt 0.628261 0.175692
vt 0.628261 0.175692
vt 0.715638 0.175692
vt 0.715638 0.175692
vt 0.715638 0.088315
vt 0.715638 0.088315
vt 0.715638 0.175692
vt 0.715638 0.088315
vt 0.715638 0.175692
vn 0.0000 0.4006 -0.9163
vn -0.9412 0.3379 0.0000
vn -0.9412 0.3380 0.0000
vn 0.0000 1.0000 0.0000
vn 0.9412 0.3380 0.0000
vn 0.0000 0.4006 0.9163
vn 0.7168 -0.1473 -0.6816
vn 0.4479 0.7861 -0.4259
vn 0.7167 -0.1472 0.6816
vn 0.4479 0.7861 0.4259
vn -0.7168 -0.1473 -0.6816
vn -0.4479 0.7861 -0.4259
vn -0.7167 -0.1472 0.6816
vn -0.4479 0.7861 0.4259
vn 0.8179 -0.5754 -0.0000
vn 0.8179 -0.5753 -0.0000
vn 0.6246 0.4901 -0.6080
vn 0.5753 0.8179 0.0000
vn 0.6246 0.4901 0.6080
vn 0.0000 -0.5474 0.8368
vn 0.0000 0.8368 0.5474
vn -0.6246 0.4901 0.6080
vn -0.8179 -0.5753 0.0000
vn -0.5753 0.8179 0.0000
vn -0.6246 0.4901 -0.6080
vn 0.0000 -0.5475 -0.8368
vn 0.0000 0.8368 -0.5474
vn 0.0000 -1.0000 0.0000
g Cube_Cube.002_Cube_Cube.002_Ouro.001
usemtl Ouro.001
s 1
f 1/1/1 2/2/1 3/3/1
f 4/4/2 5/5/3 6/6/3
f 7/7/4 8/8/4 9/9/4
f 10/10/5 11/11/5 12/12/5
f 13/13/6 14/14/6 15/15/6
f 16/16/7 2/17/7 10/18/7
f 17/19/8 18/20/8 19/21/8
f 20/22/9 12/23/9 15/24/9
f 7/25/10 13/13/10 11/11/10
f 21/26/11 6/27/11 3/28/11
f 8/29/12 1/1/12 5/5/12
f 22/30/13 14/31/13 4/32/13
f 9/9/14 23/33/14 24/34/14
f 16/35/15 12/12/16 20/22/16
f 17/36/17 10/37/17 2/38/17
f 7/7/18 19/39/18 18/40/18
f 13/41/19 12/42/19 11/43/19
f 20/44/20 14/14/20 22/30/20
f 9/45/21 13/46/21 7/25/21
f 4/47/22 24/48/22 23/49/22
f 22/50/23 6/6/23 21/26/23
f 8/51/24 23/52/24 9/9/24
f 1/53/25 6/54/25 5/55/25
f 21/56/26 2/2/26 16/16/26
f 18/20/27 1/57/27 8/29/27
f 22/50/28 16/58/28 20/22/28
f 1/1/1 17/59/1 2/2/1
f 4/4/2 23/33/2 5/5/3
f 7/7/4 18/60/4 8/8/4
f 10/10/5 19/61/5 11/11/5
f 13/13/6 24/34/6 14/14/6
f 16/35/15 10/18/15 12/12/16
f 17/36/17 19/21/17 10/37/17
f 7/7/18 11/11/18 19/39/18
f 13/41/19 15/62/19 12/42/19
f 20/44/20 15/24/20 14/14/20
f 9/45/21 24/34/21 13/46/21
f 4/47/22 14/63/22 24/48/22
f 22/50/23 4/32/23 6/6/23
f 8/51/24 5/5/24 23/52/24
f 1/53/25 3/64/25 6/54/25
f 21/56/26 3/28/26 2/2/26
f 18/20/27 17/59/27 1/57/27
f 22/50/28 21/65/28 16/58/28
