# Blender v2.92.0 OBJ File: 'mine-maze-s.blend'
# www.blender.org
mtllib ouro1.mtl
o Cube_Cube.001
v 7.728240 1.374089 -8.608058
v 7.744420 1.398820 -8.618361
v 7.714939 1.399492 -8.590188
v 7.622115 1.678567 -8.718813
v 7.584311 1.703297 -8.726271
v 7.593222 1.677894 -8.690158
v 6.226516 1.374089 -8.608057
v 6.239818 1.399492 -8.590188
v 6.210337 1.398820 -8.618361
v 6.370445 1.703297 -8.726271
v 6.332642 1.678567 -8.718813
v 6.361535 1.677894 -8.690158
v 7.728240 1.374089 -9.153877
v 7.714939 1.399492 -9.171746
v 7.744420 1.398820 -9.143573
v 7.584311 1.703297 -9.035664
v 7.622115 1.678567 -9.043121
v 7.593222 1.677894 -9.071776
v 6.226516 1.374089 -9.153876
v 6.210337 1.398820 -9.143573
v 6.239818 1.399492 -9.171746
v 6.370445 1.703297 -9.035664
v 6.361535 1.677894 -9.071776
v 6.332642 1.678567 -9.043121
vt 0.715638 0.088315
vt 0.628261 0.175692
vt 0.628261 0.088315
vt 0.628261 0.088315
vt 0.715638 0.175692
vt 0.628261 0.175692
vt 0.715638 0.088315
vt 0.628261 0.175692
vt 0.628261 0.088315
vt 0.628261 0.088315
vt 0.715638 0.175692
vt 0.628261 0.175692
vt 0.715638 0.088315
vt 0.628261 0.175692
vt 0.628261 0.088315
vt 0.628261 0.088315
vt 0.715638 0.088315
vt 0.715638 0.175692
vt 0.628261 0.088315
vt 0.715638 0.088315
vt 0.715638 0.175692
vt 0.628261 0.088315
vt 0.715638 0.088315
vt 0.715638 0.175692
vt 0.628261 0.088315
vt 0.628261 0.088315
vt 0.715638 0.088315
vt 0.715638 0.175692
vt 0.628261 0.088315
vt 0.628261 0.088315
vt 0.715638 0.088315
vt 0.715638 0.175692
vt 0.715638 0.088315
vt 0.715638 0.175692
vt 0.715638 0.088315
vt 0.715638 0.088315
vt 0.628261 0.175692
vt 0.628261 0.088315
vt 0.628261 0.175692
vt 0.628261 0.088315
vt 0.628261 0.088315
vt 0.715638 0.175692
vt 0.628261 0.175692
vt 0.715638 0.088315
vt 0.715638 0.088315
vt 0.628261 0.175692
vt 0.715638 0.088315
vt 0.628261 0.175692
vt 0.628261 0.088315
vt 0.715638 0.088315
vt 0.715638 0.088315
vt 0.628261 0.175692
vt 0.628261 0.088315
vt 0.715638 0.175692
vt 0.628261 0.175692
vt 0.715638 0.088315
vt 0.628261 0.175692
vt 0.628261 0.175692
vt 0.715638 0.175692
vt 0.715638 0.175692
vt 0.715638 0.088315
vt 0.715638 0.088315
vt 0.715638 0.175692
vt 0.715638 0.088315
vt 0.715638 0.175692
vn 0.9163 0.4006 0.0000
vn 0.0000 0.3380 -0.9412
vn 0.0000 1.0000 0.0000
vn 0.0000 0.3380 0.9412
vn -0.9163 0.4006 0.0000
vn 0.6816 -0.1473 0.7167
vn 0.4259 0.7861 0.4479
vn -0.6816 -0.1473 0.7168
vn -0.4259 0.7861 0.4479
vn 0.6816 -0.1473 -0.7168
vn 0.4259 0.7861 -0.4479
vn -0.6816 -0.1473 -0.7168
vn -0.4259 0.7861 -0.4479
vn 0.0000 -0.5753 0.8179
vn 0.6080 0.4901 0.6246
vn 0.0000 0.8179 0.5753
vn -0.6080 0.4901 0.6246
vn -0.8368 -0.5475 0.0000
vn -0.5474 0.8368 0.0000
vn -0.6080 0.4901 -0.6246
vn 0.0000 -0.5753 -0.8179
vn 0.0000 0.8179 -0.5753
vn 0.6080 0.4901 -0.6246
vn 0.8368 -0.5475 0.0000
vn 0.5475 0.8368 0.0000
vn 0.0000 -1.0000 0.0000
vn 0.0000 -0.5754 0.8179
vn -0.5475 0.8368 0.0000
vn 0.0000 -0.5754 -0.8179
g Cube_Cube.001_Ouro
usemtl Ouro
s off
f 17/1/1 2/2/1 15/3/1
f 21/4/2 18/5/2 14/6/2
f 10/7/3 16/8/3 22/9/3
f 3/10/4 12/11/4 8/12/4
f 11/13/5 20/14/5 9/15/5
f 1/16/6 2/17/6 3/18/6
f 4/19/7 5/20/7 6/21/7
f 7/22/8 8/23/8 9/24/8
f 10/25/9 11/13/9 12/11/9
f 13/26/10 14/27/10 15/28/10
f 16/29/11 17/1/11 18/5/11
f 19/30/12 20/31/12 21/32/12
f 22/9/13 23/33/13 24/34/13
f 1/35/14 8/12/14 7/22/14
f 4/36/15 3/37/15 2/38/15
f 10/7/16 6/39/16 5/40/16
f 11/41/17 8/42/17 12/43/17
f 7/44/18 20/14/18 19/30/18
f 22/45/19 11/46/19 10/25/19
f 21/47/20 24/48/20 23/49/20
f 19/50/21 14/6/21 13/26/21
f 16/51/22 23/52/22 22/9/22
f 17/53/23 14/54/23 18/55/23
f 13/56/24 2/2/24 1/16/24
f 5/20/25 17/57/25 16/29/25
f 19/50/26 1/58/26 7/22/26
f 17/1/1 4/59/1 2/2/1
f 21/4/2 23/33/2 18/5/2
f 10/7/3 5/60/3 16/8/3
f 3/10/4 6/61/4 12/11/4
f 11/13/5 24/34/5 20/14/5
f 1/35/27 3/18/27 8/12/27
f 4/36/15 6/21/15 3/37/15
f 10/7/16 12/11/16 6/39/16
f 11/41/17 9/62/17 8/42/17
f 7/44/18 9/24/18 20/14/18
f 22/45/28 24/34/28 11/46/28
f 21/47/20 20/63/20 24/48/20
f 19/50/29 21/32/29 14/6/29
f 16/51/22 18/5/22 23/52/22
f 17/53/23 15/64/23 14/54/23
f 13/56/24 15/28/24 2/2/24
f 5/20/25 4/59/25 17/57/25
f 19/50/26 13/65/26 1/58/26
