# Blender v2.92.0 OBJ File: 'mine-maze-s.blend'
# www.blender.org
mtllib pilha3.mtl
o Cylinder.003
v -13.348553 -0.098166 -26.638325
v -13.348553 1.035926 -26.702997
v -13.331814 1.035926 -26.700794
v -13.316216 1.035926 -26.694332
v -13.302822 1.035926 -26.684055
v -13.292545 1.035926 -26.670660
v -13.286084 1.035926 -26.655064
v -13.283880 1.035926 -26.638325
v -13.286084 1.035926 -26.621586
v -13.292545 1.035926 -26.605989
v -13.302822 1.035926 -26.592594
v -13.316216 1.035926 -26.582317
v -13.331814 1.035926 -26.575855
v -13.348553 1.035926 -26.573652
v -13.365291 1.035926 -26.575855
v -13.380889 1.035926 -26.582317
v -13.394283 1.035926 -26.592594
v -13.404560 1.035926 -26.605989
v -13.411021 1.035926 -26.621586
v -13.413225 1.035926 -26.638325
v -13.411021 1.035926 -26.655064
v -13.404560 1.035926 -26.670660
v -13.394283 1.035926 -26.684055
v -13.127562 -0.097666 -26.638430
v -13.380889 1.035926 -26.694332
v -13.347598 -0.097666 -26.638430
v -13.365292 1.035926 -26.700794
v -13.291603 1.035926 -26.850864
v -13.348553 1.035926 -26.858362
v -13.238534 1.035926 -26.828882
v -13.192964 1.035926 -26.793915
v -13.157995 1.035926 -26.748343
v -13.136014 1.035926 -26.695274
v -13.128516 1.035926 -26.638325
v -13.136014 1.035926 -26.581375
v -13.157995 1.035926 -26.528307
v -13.192964 1.035926 -26.482735
v -13.238534 1.035926 -26.447767
v -13.291603 1.035926 -26.425785
v -13.348553 1.035926 -26.418287
v -13.405502 1.035926 -26.425785
v -13.458570 1.035926 -26.447767
v -13.504142 1.035926 -26.482735
v -13.539110 1.035926 -26.528307
v -13.561091 1.035926 -26.581375
v -13.568589 1.035926 -26.638325
v -13.561091 1.035926 -26.695274
v -13.539110 1.035926 -26.748343
v -13.504142 1.035926 -26.793915
v -13.458571 1.035926 -26.828882
v -13.405502 1.035926 -26.850864
v -13.348553 1.069506 -26.638325
v -13.348553 0.678897 -26.858362
v -13.291603 0.678897 -26.850864
v -13.238534 0.678897 -26.828882
v -13.192964 0.678897 -26.793915
v -13.157995 0.678897 -26.748343
v -13.136014 0.678897 -26.695274
v -13.128516 0.678897 -26.638325
v -13.136014 0.678897 -26.581375
v -13.157995 0.678897 -26.528307
v -13.192964 0.678897 -26.482735
v -13.238534 0.678897 -26.447767
v -13.291603 0.678897 -26.425785
v -13.348553 0.678897 -26.418287
v -13.405502 0.678897 -26.425785
v -13.458570 0.678897 -26.447767
v -13.504142 0.678897 -26.482735
v -13.539110 0.678897 -26.528307
v -13.561091 0.678897 -26.581375
v -13.568589 0.678897 -26.638325
v -13.561091 0.678897 -26.695274
v -13.539110 0.678897 -26.748343
v -13.504142 0.678897 -26.793915
v -13.458571 0.678897 -26.828882
v -13.405502 0.678897 -26.850864
v -13.331814 1.069506 -26.700794
v -13.348553 1.069506 -26.702997
v -13.316216 1.069506 -26.694332
v -13.302822 1.069506 -26.684055
v -13.292545 1.069506 -26.670660
v -13.286084 1.069506 -26.655064
v -13.283880 1.069506 -26.638325
v -13.286084 1.069506 -26.621586
v -13.292545 1.069506 -26.605989
v -13.302822 1.069506 -26.592594
v -13.316216 1.069506 -26.582317
v -13.331814 1.069506 -26.575855
v -13.348553 1.069506 -26.573652
v -13.365291 1.069506 -26.575855
v -13.380889 1.069506 -26.582317
v -13.394283 1.069506 -26.592594
v -13.404560 1.069506 -26.605989
v -13.411021 1.069506 -26.621586
v -13.413225 1.069506 -26.638325
v -13.411021 1.069506 -26.655064
v -13.404560 1.069506 -26.670660
v -13.394283 1.069506 -26.684055
v -13.380889 1.069506 -26.694332
v -13.365292 1.069506 -26.700794
v -13.348553 -0.098166 -26.858362
v -13.291603 -0.098166 -26.850864
v -13.238534 -0.098166 -26.828882
v -13.192964 -0.098166 -26.793915
v -13.157995 -0.098166 -26.748343
v -13.136014 -0.098166 -26.695274
v -13.128516 -0.098166 -26.638325
v -13.136014 -0.098166 -26.581375
v -13.157995 -0.098166 -26.528307
v -13.192964 -0.098166 -26.482735
v -13.238534 -0.098166 -26.447767
v -13.291603 -0.098166 -26.425785
v -13.348553 -0.098166 -26.418287
v -13.405502 -0.098166 -26.425785
v -13.458570 -0.098166 -26.447767
v -13.504142 -0.098166 -26.482735
v -13.539110 -0.098166 -26.528307
v -13.561091 -0.098166 -26.581375
v -13.568589 -0.098166 -26.638325
v -13.561091 -0.098166 -26.695274
v -13.539110 -0.098166 -26.748343
v -13.504142 -0.098166 -26.793915
v -13.458571 -0.098166 -26.828882
v -13.405502 -0.098166 -26.850864
vt 0.822664 0.677547
vt 0.642177 0.778178
vt 0.630271 0.740127
vt 0.835052 0.701618
vt 0.656577 0.816013
vt 0.850462 0.725789
vt 0.673322 0.853573
vt 0.869438 0.750127
vt 0.692202 0.890853
vt 0.892845 0.774765
vt 0.712939 0.927926
vt 0.922123 0.799918
vt 0.735187 0.964993
vt 0.973464 0.222641
vt 0.801185 0.167808
vt 0.826756 0.141212
vt 0.953706 0.316100
vt 0.775761 0.195045
vt 0.923575 0.332944
vt 0.751566 0.222614
vt 0.898879 0.350469
vt 0.728740 0.250890
vt 0.878120 0.368625
vt 0.707451 0.280093
vt 0.860441 0.387412
vt 0.687869 0.310346
vt 0.845330 0.406837
vt 0.670155 0.341698
vt 0.832479 0.426897
vt 0.654455 0.374147
vt 0.821704 0.447577
vt 0.640902 0.407653
vt 0.812901 0.468847
vt 0.629613 0.442147
vt 0.806017 0.490663
vt 0.620694 0.477536
vt 0.801036 0.512973
vt 0.614235 0.513714
vt 0.797967 0.535714
vt 0.610312 0.550560
vt 0.796838 0.558818
vt 0.608988 0.587944
vt 0.797694 0.582217
vt 0.610307 0.625729
vt 0.800599 0.605845
vt 0.614295 0.663779
vt 0.978651 0.234402
vt 0.998306 0.244284
vt 0.978651 0.244284
vt 0.805642 0.629639
vt 0.620958 0.701955
vt 0.812941 0.653551
vt 0.924323 0.625912
vt 0.941111 0.649091
vt 0.932035 0.637910
vt 0.951608 0.659219
vt 0.963591 0.667993
vt 0.977136 0.675010
vt 0.959816 0.825945
vt 0.992316 0.428837
vt 0.965526 0.435364
vt 0.978455 0.430689
vt 0.953996 0.442050
vt 0.943784 0.450286
vt 0.934823 0.459756
vt 0.927063 0.470228
vt 0.920469 0.481523
vt 0.915020 0.493496
vt 0.907524 0.518989
vt 0.910705 0.506022
vt 0.905482 0.532291
vt 0.904587 0.545825
vt 0.906302 0.573181
vt 0.904855 0.559490
vt 0.908947 0.586790
vt 0.912814 0.600201
vt 0.917928 0.613289
vt 0.978651 0.145465
vt 0.998306 0.155347
vt 0.978651 0.155347
vt 0.978651 0.086174
vt 0.998306 0.076292
vt 0.998306 0.086174
vt 0.978651 0.017001
vt 0.998306 0.007120
vt 0.998306 0.017001
vt 0.978651 0.165229
vt 0.998306 0.165229
vt 0.998306 0.096056
vt 0.978651 0.096056
vt 0.998306 0.026883
vt 0.978651 0.026883
vt 0.998306 0.175111
vt 0.978651 0.175111
vt 0.978651 0.184993
vt 0.998306 0.194875
vt 0.978651 0.194875
vt 0.998306 0.105938
vt 0.978651 0.105938
vt 0.998306 0.036765
vt 0.978651 0.036765
vt 0.998306 0.184993
vt 0.998306 0.204756
vt 0.978651 0.204756
vt 0.998306 0.115820
vt 0.978651 0.115820
vt 0.998306 0.046647
vt 0.978651 0.046647
vt 0.998306 0.214638
vt 0.978651 0.214638
vt 0.998306 0.125702
vt 0.978651 0.125702
vt 0.978651 0.056529
vt 0.998306 0.056529
vt 0.998306 0.224520
vt 0.978651 0.224520
vt 0.998306 0.135584
vt 0.978651 0.135584
vt 0.978651 0.066411
vt 0.998306 0.066411
vt 0.998306 0.234402
vt 0.998306 0.145465
vt 0.978651 0.076292
vt 0.016849 0.257881
vt 0.426064 0.310975
vt 0.415593 0.333669
vt 0.011262 0.293938
vt 0.407564 0.355722
vt 0.006753 0.330060
vt 0.401646 0.377276
vt 0.003372 0.366264
vt 0.397615 0.398462
vt 0.001159 0.402556
vt 0.395326 0.419403
vt 0.000144 0.438930
vt 0.394697 0.440214
vt 0.000343 0.475379
vt 0.395701 0.461009
vt 0.001762 0.511890
vt 0.398367 0.481898
vt 0.004394 0.548453
vt 0.402777 0.502995
vt 0.008220 0.585057
vt 0.409076 0.524416
vt 0.013209 0.621698
vt 0.417487 0.546282
vt 0.019318 0.658383
vt 0.428330 0.568722
vt 0.026492 0.695128
vt 0.442069 0.591872
vt 0.034669 0.731970
vt 0.459375 0.615875
vt 0.043779 0.768978
vt 0.481251 0.640870
vt 0.053756 0.806267
vt 0.509270 0.666970
vt 0.064542 0.844032
vt 0.546057 0.694182
vt 0.076114 0.882616
vt 0.596299 0.722233
vt 0.069732 0.038238
vt 0.596299 0.152067
vt 0.543930 0.181915
vt 0.058858 0.076179
vt 0.506376 0.210383
vt 0.048775 0.113167
vt 0.478211 0.237373
vt 0.039483 0.149623
vt 0.456480 0.263010
vt 0.031024 0.185801
vt 0.439457 0.287480
vt 0.023458 0.221855
vt 0.936404 0.943903
vt 0.931463 0.981433
vt 0.921918 0.978875
vt 0.941345 0.981433
vt 0.950890 0.978875
vt 0.959448 0.973934
vt 0.966436 0.966947
vt 0.971377 0.958389
vt 0.973934 0.948844
vt 0.973934 0.938962
vt 0.971377 0.929417
vt 0.966436 0.920859
vt 0.959448 0.913872
vt 0.950890 0.908931
vt 0.941345 0.906373
vt 0.931463 0.906373
vt 0.921918 0.908930
vt 0.913360 0.913872
vt 0.906373 0.920859
vt 0.901432 0.929417
vt 0.898874 0.938962
vt 0.898874 0.948844
vt 0.901432 0.958389
vt 0.906373 0.966947
vt 0.913360 0.973934
vt 0.588396 0.438814
vt 0.974222 0.953462
vt 0.975040 0.906587
vt 0.975040 0.953677
vt 0.992316 0.679705
vt 0.978651 0.007120
vt 0.080963 0.000144
vt 0.974222 0.906373
vn 0.0000 0.6789 -0.7342
vn 0.2588 0.0000 -0.9659
vn 0.0000 0.0000 -1.0000
vn 0.1900 0.6789 -0.7092
vn 0.5000 0.0000 -0.8660
vn 0.3671 0.6789 -0.6359
vn 0.7071 0.0000 -0.7071
vn 0.5192 0.6789 -0.5192
vn 0.8660 0.0000 -0.5000
vn 0.6359 0.6789 -0.3671
vn 0.9659 0.0000 -0.2588
vn 0.7092 0.6789 -0.1900
vn 1.0000 0.0000 0.0000
vn 0.7342 0.6789 0.0000
vn 0.9659 0.0000 0.2588
vn 0.7092 0.6789 0.1900
vn 0.8660 0.0000 0.5000
vn 0.6359 0.6789 0.3671
vn 0.7071 0.0000 0.7071
vn 0.5192 0.6789 0.5192
vn 0.5000 0.0000 0.8660
vn 0.3671 0.6789 0.6359
vn 0.2588 0.0000 0.9659
vn 0.1900 0.6789 0.7092
vn 0.0000 0.0000 1.0000
vn 0.0000 0.6789 0.7342
vn -0.2588 0.0000 0.9659
vn -0.1900 0.6789 0.7092
vn -0.5000 0.0000 0.8660
vn -0.3671 0.6789 0.6359
vn -0.7071 0.0000 0.7071
vn -0.5192 0.6789 0.5192
vn -0.8660 0.0000 0.5000
vn -0.6359 0.6789 0.3671
vn -0.9659 0.0000 0.2588
vn -0.7092 0.6789 0.1900
vn -1.0000 0.0000 0.0000
vn -0.7342 0.6789 0.0000
vn -0.9659 0.0000 -0.2588
vn -0.7092 0.6789 -0.1900
vn -0.8660 0.0000 -0.5000
vn -0.6359 0.6789 -0.3671
vn -0.7071 0.0000 -0.7071
vn -0.5192 0.6789 -0.5192
vn -0.5000 0.0000 -0.8660
vn 0.6521 0.7377 -0.1748
vn 0.6751 0.7377 0.0000
vn -0.3671 0.6789 -0.6359
vn -0.2588 0.0000 -0.9659
vn -0.1900 0.6789 -0.7092
vn 0.0000 0.7377 -0.6751
vn 0.3376 0.7377 -0.5847
vn 0.1748 0.7377 -0.6521
vn 0.4773 0.7377 -0.4774
vn 0.5847 0.7377 -0.3376
vn 0.5847 0.7377 0.3375
vn 0.6521 0.7377 0.1747
vn 0.4774 0.7377 0.4773
vn 0.3376 0.7377 0.5847
vn 0.1747 0.7377 0.6521
vn 0.0000 0.7377 0.6751
vn -0.1747 0.7377 0.6521
vn -0.3376 0.7377 0.5847
vn -0.5846 0.7377 0.3376
vn -0.4774 0.7377 0.4774
vn -0.6521 0.7377 0.1747
vn -0.6751 0.7377 0.0000
vn -0.5847 0.7377 -0.3375
vn -0.6521 0.7377 -0.1747
vn -0.4773 0.7377 -0.4774
vn -0.3375 0.7377 -0.5847
vn -0.1747 0.7377 -0.6521
vn 0.7092 0.6789 0.1901
vn -0.3672 0.6789 -0.6358
vn 0.6358 0.6789 0.3671
vn 0.1900 0.6789 -0.7093
vn 0.1900 0.6789 0.7093
vn 0.6359 0.6789 -0.3670
vn -0.7092 0.6789 -0.1901
vn 0.0000 -0.6789 -0.7342
vn -0.1900 -0.6789 -0.7092
vn -0.3671 -0.6789 -0.6359
vn -0.5192 -0.6789 -0.5192
vn -0.6359 -0.6789 -0.3671
vn -0.7092 -0.6789 -0.1900
vn -0.7342 -0.6789 0.0000
vn -0.7092 -0.6789 0.1900
vn -0.6359 -0.6789 0.3671
vn -0.5192 -0.6789 0.5192
vn -0.3671 -0.6789 0.6359
vn -0.1900 -0.6789 0.7092
vn 0.0000 -0.6789 0.7342
vn 0.1900 -0.6789 0.7092
vn 0.3671 -0.6789 0.6359
vn 0.5192 -0.6789 0.5192
vn 0.6359 -0.6789 0.3671
vn 0.7092 -0.6789 0.1900
vn 0.5870 -0.6453 -0.4888
vn 0.7092 -0.6789 -0.1900
vn 0.6359 -0.6789 -0.3671
vn 0.5192 -0.6789 -0.5192
vn 0.3671 -0.6789 -0.6359
vn 0.1900 -0.6789 -0.7092
vn 0.0000 1.0000 0.0000
vn 0.0000 -0.9972 -0.0751
vn 0.0000 -0.2053 -0.9787
g Cylinder.003_Cylinder.003_Pilha.002
usemtl Pilha.002
s 1
f 29/1/1 54/2/2 53/3/3
f 28/4/4 55/5/5 54/2/2
f 30/6/6 56/7/7 55/5/5
f 31/8/8 57/9/9 56/7/7
f 32/10/10 58/11/11 57/9/9
f 33/12/12 59/13/13 58/11/11
f 34/14/14 60/15/15 59/16/13
f 35/17/16 61/18/17 60/15/15
f 36/19/18 62/20/19 61/18/17
f 37/21/20 63/22/21 62/20/19
f 38/23/22 64/24/23 63/22/21
f 39/25/24 65/26/25 64/24/23
f 40/27/26 66/28/27 65/26/25
f 41/29/28 67/30/29 66/28/27
f 42/31/30 68/32/31 67/30/29
f 43/33/32 69/34/33 68/32/31
f 44/35/34 70/36/35 69/34/33
f 45/37/36 71/38/37 70/36/35
f 46/39/38 72/40/39 71/38/37
f 47/41/40 73/42/41 72/40/39
f 48/43/42 74/44/43 73/42/41
f 49/45/44 75/46/45 74/44/43
f 7/47/46 83/48/14 8/49/47
f 50/50/48 76/51/49 75/46/45
f 51/52/50 53/3/3 76/51/49
f 2/53/51 28/4/4 29/1/1
f 4/54/52 28/4/4 3/55/53
f 5/56/54 30/6/6 4/54/52
f 6/57/55 31/8/8 5/56/54
f 6/57/55 33/12/12 32/10/10
f 7/58/46 34/59/14 33/12/12
f 8/60/47 35/17/16 34/14/14
f 10/61/56 35/17/16 9/62/57
f 11/63/58 36/19/18 10/61/56
f 12/64/59 37/21/20 11/63/58
f 13/65/60 38/23/22 12/64/59
f 14/66/61 39/25/24 13/65/60
f 15/67/62 40/27/26 14/66/61
f 16/68/63 41/29/28 15/67/62
f 16/68/63 43/33/32 42/31/30
f 18/69/64 43/33/32 17/70/65
f 19/71/66 44/35/34 18/69/64
f 20/72/67 45/37/36 19/71/66
f 20/72/67 47/41/40 46/39/38
f 22/73/68 47/41/40 21/74/69
f 23/75/70 48/43/42 22/73/68
f 25/76/71 49/45/44 23/75/70
f 25/76/71 51/52/50 50/50/48
f 2/53/51 51/52/50 27/77/72
f 22/78/68 98/79/44 23/80/70
f 16/81/63 90/82/28 91/83/30
f 9/84/57 83/85/14 84/86/73
f 25/87/71 98/79/44 99/88/74
f 16/81/63 92/89/32 17/90/65
f 9/84/57 85/91/75 10/92/56
f 25/87/71 100/93/50 27/94/72
f 2/95/51 77/96/76 3/97/53
f 17/90/65 93/98/34 18/99/64
f 10/92/56 86/100/20 11/101/58
f 2/95/51 100/93/50 78/102/1
f 3/97/53 79/103/6 4/104/52
f 18/99/64 94/105/36 19/106/66
f 11/101/58 87/107/22 12/108/59
f 4/104/52 80/109/8 5/110/54
f 19/106/66 95/111/38 20/112/67
f 13/113/60 87/107/22 88/114/77
f 5/110/54 81/115/78 6/116/55
f 20/112/67 96/117/79 21/118/69
f 14/119/61 88/114/77 89/120/26
f 6/116/55 82/121/12 7/47/46
f 21/118/69 97/122/42 22/78/68
f 15/123/62 89/120/26 90/82/28
f 76/124/49 101/125/80 124/126/81
f 75/127/45 124/126/81 123/128/82
f 74/129/43 123/128/82 122/130/83
f 73/131/41 122/130/83 121/132/84
f 72/133/39 121/132/84 120/134/85
f 71/135/37 120/134/85 119/136/86
f 70/137/35 119/136/86 118/138/87
f 69/139/33 118/138/87 117/140/88
f 68/141/31 117/140/88 116/142/89
f 67/143/29 116/142/89 115/144/90
f 66/145/27 115/144/90 114/146/91
f 65/147/25 114/146/91 113/148/92
f 64/149/23 113/148/92 112/150/93
f 63/151/21 112/150/93 111/152/94
f 62/153/19 111/152/94 110/154/95
f 61/155/17 110/154/95 109/156/96
f 60/157/15 109/156/96 108/158/97
f 59/159/13 108/158/97 107/160/98
f 58/161/11 107/162/98 106/163/99
f 57/164/9 106/163/99 105/165/100
f 56/166/7 105/165/100 104/167/101
f 55/168/5 104/167/101 103/169/102
f 54/170/2 103/169/102 102/171/103
f 53/172/3 102/171/103 101/125/80
f 52/173/104 77/174/76 78/175/1
f 52/173/104 79/176/6 77/174/76
f 52/173/104 80/177/8 79/176/6
f 52/173/104 81/178/78 80/177/8
f 52/173/104 82/179/12 81/178/78
f 52/173/104 83/180/14 82/179/12
f 52/173/104 84/181/73 83/180/14
f 52/173/104 85/182/75 84/181/73
f 52/173/104 86/183/20 85/182/75
f 52/173/104 87/184/22 86/183/20
f 52/173/104 88/185/77 87/184/22
f 52/173/104 89/186/26 88/185/77
f 52/173/104 90/187/28 89/186/26
f 52/173/104 91/188/30 90/187/28
f 52/173/104 92/189/32 91/188/30
f 52/173/104 93/190/34 92/189/32
f 52/173/104 94/191/36 93/190/34
f 52/173/104 95/192/38 94/191/36
f 52/173/104 96/193/79 95/192/38
f 52/173/104 97/194/42 96/193/79
f 52/173/104 98/195/44 97/194/42
f 52/173/104 99/196/74 98/195/44
f 52/173/104 100/197/50 99/196/74
f 52/173/104 78/175/1 100/197/50
f 1/198/105 101/125/80 102/171/103
f 1/198/105 102/171/103 103/169/102
f 1/198/105 103/169/102 104/167/101
f 1/198/105 104/167/101 105/165/100
f 1/198/105 105/165/100 106/163/99
f 1/198/105 106/163/99 107/162/98
f 1/198/105 107/160/98 108/158/97
f 1/198/105 108/158/97 109/156/96
f 1/198/105 109/156/96 110/154/95
f 1/198/105 110/154/95 111/152/94
f 1/198/105 111/152/94 112/150/93
f 1/198/105 112/150/93 113/148/92
f 1/198/105 113/148/92 114/146/91
f 1/198/105 114/146/91 115/144/90
f 1/198/105 115/144/90 116/142/89
f 1/198/105 116/142/89 117/140/88
f 1/198/105 117/140/88 118/138/87
f 1/198/105 118/138/87 119/136/86
f 1/198/105 119/136/86 120/134/85
f 1/198/105 120/134/85 121/132/84
f 1/198/105 121/132/84 122/130/83
f 1/198/105 122/130/83 123/128/82
f 1/198/105 123/128/82 124/126/81
f 1/198/105 124/126/81 101/125/80
f 107/199/98 26/200/106 24/201/106
f 29/1/1 28/4/4 54/2/2
f 28/4/4 30/6/6 55/5/5
f 30/6/6 31/8/8 56/7/7
f 31/8/8 32/10/10 57/9/9
f 32/10/10 33/12/12 58/11/11
f 33/12/12 34/59/14 59/13/13
f 34/14/14 35/17/16 60/15/15
f 35/17/16 36/19/18 61/18/17
f 36/19/18 37/21/20 62/20/19
f 37/21/20 38/23/22 63/22/21
f 38/23/22 39/25/24 64/24/23
f 39/25/24 40/27/26 65/26/25
f 40/27/26 41/29/28 66/28/27
f 41/29/28 42/31/30 67/30/29
f 42/31/30 43/33/32 68/32/31
f 43/33/32 44/35/34 69/34/33
f 44/35/34 45/37/36 70/36/35
f 45/37/36 46/39/38 71/38/37
f 46/39/38 47/41/40 72/40/39
f 47/41/40 48/43/42 73/42/41
f 48/43/42 49/45/44 74/44/43
f 49/45/44 50/50/48 75/46/45
f 7/47/46 82/121/12 83/48/14
f 50/50/48 51/52/50 76/51/49
f 51/52/50 29/1/1 53/3/3
f 2/53/51 3/55/53 28/4/4
f 4/54/52 30/6/6 28/4/4
f 5/56/54 31/8/8 30/6/6
f 6/57/55 32/10/10 31/8/8
f 6/57/55 7/58/46 33/12/12
f 7/58/46 8/202/47 34/59/14
f 8/60/47 9/62/57 35/17/16
f 10/61/56 36/19/18 35/17/16
f 11/63/58 37/21/20 36/19/18
f 12/64/59 38/23/22 37/21/20
f 13/65/60 39/25/24 38/23/22
f 14/66/61 40/27/26 39/25/24
f 15/67/62 41/29/28 40/27/26
f 16/68/63 42/31/30 41/29/28
f 16/68/63 17/70/65 43/33/32
f 18/69/64 44/35/34 43/33/32
f 19/71/66 45/37/36 44/35/34
f 20/72/67 46/39/38 45/37/36
f 20/72/67 21/74/69 47/41/40
f 22/73/68 48/43/42 47/41/40
f 23/75/70 49/45/44 48/43/42
f 25/76/71 50/50/48 49/45/44
f 25/76/71 27/77/72 51/52/50
f 2/53/51 29/1/1 51/52/50
f 22/78/68 97/122/42 98/79/44
f 16/81/63 15/123/62 90/82/28
f 9/84/57 8/203/47 83/85/14
f 25/87/71 23/80/70 98/79/44
f 16/81/63 91/83/30 92/89/32
f 9/84/57 84/86/73 85/91/75
f 25/87/71 99/88/74 100/93/50
f 2/95/51 78/102/1 77/96/76
f 17/90/65 92/89/32 93/98/34
f 10/92/56 85/91/75 86/100/20
f 2/95/51 27/94/72 100/93/50
f 3/97/53 77/96/76 79/103/6
f 18/99/64 93/98/34 94/105/36
f 11/101/58 86/100/20 87/107/22
f 4/104/52 79/103/6 80/109/8
f 19/106/66 94/105/36 95/111/38
f 13/113/60 12/108/59 87/107/22
f 5/110/54 80/109/8 81/115/78
f 20/112/67 95/111/38 96/117/79
f 14/119/61 13/113/60 88/114/77
f 6/116/55 81/115/78 82/121/12
f 21/118/69 96/117/79 97/122/42
f 15/123/62 14/119/61 89/120/26
f 76/124/49 53/172/3 101/125/80
f 75/127/45 76/124/49 124/126/81
f 74/129/43 75/127/45 123/128/82
f 73/131/41 74/129/43 122/130/83
f 72/133/39 73/131/41 121/132/84
f 71/135/37 72/133/39 120/134/85
f 70/137/35 71/135/37 119/136/86
f 69/139/33 70/137/35 118/138/87
f 68/141/31 69/139/33 117/140/88
f 67/143/29 68/141/31 116/142/89
f 66/145/27 67/143/29 115/144/90
f 65/147/25 66/145/27 114/146/91
f 64/149/23 65/147/25 113/148/92
f 63/151/21 64/149/23 112/150/93
f 62/153/19 63/151/21 111/152/94
f 61/155/17 62/153/19 110/154/95
f 60/157/15 61/155/17 109/156/96
f 59/159/13 60/157/15 108/158/97
f 58/161/11 59/204/13 107/162/98
f 57/164/9 58/161/11 106/163/99
f 56/166/7 57/164/9 105/165/100
f 55/168/5 56/166/7 104/167/101
f 54/170/2 55/168/5 103/169/102
f 53/172/3 54/170/2 102/171/103
f 107/199/98 1/205/105 26/200/106
