# Blender v2.92.0 OBJ File: 'mine-maze-s.blend'
# www.blender.org
mtllib pilha4.mtl
o Cylinder.004_Cylinder.013
v -0.677642 -0.098166 -26.324772
v -0.677642 1.035926 -26.389444
v -0.660904 1.035926 -26.387241
v -0.645306 1.035926 -26.380779
v -0.631912 1.035926 -26.370502
v -0.621635 1.035926 -26.357107
v -0.615174 1.035926 -26.341511
v -0.612970 1.035926 -26.324772
v -0.615174 1.035926 -26.308033
v -0.621635 1.035926 -26.292437
v -0.631912 1.035926 -26.279041
v -0.645306 1.035926 -26.268764
v -0.660904 1.035926 -26.262302
v -0.677642 1.035926 -26.260099
v -0.694381 1.035926 -26.262302
v -0.709978 1.035926 -26.268764
v -0.723373 1.035926 -26.279041
v -0.733650 1.035926 -26.292437
v -0.740111 1.035926 -26.308033
v -0.742315 1.035926 -26.324772
v -0.740111 1.035926 -26.341511
v -0.733650 1.035926 -26.357107
v -0.723373 1.035926 -26.370502
v -0.456651 -0.097666 -26.324877
v -0.709979 1.035926 -26.380779
v -0.676688 -0.097666 -26.324877
v -0.694381 1.035926 -26.387241
v -0.620693 1.035926 -26.537312
v -0.677642 1.035926 -26.544809
v -0.567624 1.035926 -26.515329
v -0.522053 1.035926 -26.480362
v -0.487085 1.035926 -26.434790
v -0.465103 1.035926 -26.381721
v -0.457606 1.035926 -26.324772
v -0.465103 1.035926 -26.267822
v -0.487085 1.035926 -26.214754
v -0.522053 1.035926 -26.169182
v -0.567624 1.035926 -26.134214
v -0.620693 1.035926 -26.112232
v -0.677642 1.035926 -26.104734
v -0.734592 1.035926 -26.112232
v -0.787661 1.035926 -26.134214
v -0.833232 1.035926 -26.169182
v -0.868200 1.035926 -26.214754
v -0.890181 1.035926 -26.267822
v -0.897679 1.035926 -26.324772
v -0.890181 1.035926 -26.381721
v -0.868200 1.035926 -26.434790
v -0.833232 1.035926 -26.480362
v -0.787661 1.035926 -26.515329
v -0.734592 1.035926 -26.537312
v -0.677642 1.069506 -26.324772
v -0.677642 0.678897 -26.544809
v -0.620693 0.678897 -26.537312
v -0.567624 0.678897 -26.515329
v -0.522053 0.678897 -26.480362
v -0.487085 0.678897 -26.434790
v -0.465103 0.678897 -26.381721
v -0.457606 0.678897 -26.324772
v -0.465103 0.678897 -26.267822
v -0.487085 0.678897 -26.214754
v -0.522053 0.678897 -26.169182
v -0.567624 0.678897 -26.134214
v -0.620693 0.678897 -26.112232
v -0.677642 0.678897 -26.104734
v -0.734592 0.678897 -26.112232
v -0.787661 0.678897 -26.134214
v -0.833232 0.678897 -26.169182
v -0.868200 0.678897 -26.214754
v -0.890181 0.678897 -26.267822
v -0.897679 0.678897 -26.324772
v -0.890181 0.678897 -26.381721
v -0.868200 0.678897 -26.434790
v -0.833232 0.678897 -26.480362
v -0.787661 0.678897 -26.515329
v -0.734592 0.678897 -26.537312
v -0.660904 1.069506 -26.387241
v -0.677642 1.069506 -26.389444
v -0.645306 1.069506 -26.380779
v -0.631912 1.069506 -26.370502
v -0.621635 1.069506 -26.357107
v -0.615174 1.069506 -26.341511
v -0.612970 1.069506 -26.324772
v -0.615174 1.069506 -26.308033
v -0.621635 1.069506 -26.292437
v -0.631912 1.069506 -26.279041
v -0.645306 1.069506 -26.268764
v -0.660904 1.069506 -26.262302
v -0.677642 1.069506 -26.260099
v -0.694381 1.069506 -26.262302
v -0.709978 1.069506 -26.268764
v -0.723373 1.069506 -26.279041
v -0.733650 1.069506 -26.292437
v -0.740111 1.069506 -26.308033
v -0.742315 1.069506 -26.324772
v -0.740111 1.069506 -26.341511
v -0.733650 1.069506 -26.357107
v -0.723373 1.069506 -26.370502
v -0.709979 1.069506 -26.380779
v -0.694381 1.069506 -26.387241
v -0.677642 -0.098166 -26.544809
v -0.620693 -0.098166 -26.537312
v -0.567624 -0.098166 -26.515329
v -0.522053 -0.098166 -26.480362
v -0.487085 -0.098166 -26.434790
v -0.465103 -0.098166 -26.381721
v -0.457606 -0.098166 -26.324772
v -0.465103 -0.098166 -26.267822
v -0.487085 -0.098166 -26.214754
v -0.522053 -0.098166 -26.169182
v -0.567624 -0.098166 -26.134214
v -0.620693 -0.098166 -26.112232
v -0.677642 -0.098166 -26.104734
v -0.734592 -0.098166 -26.112232
v -0.787661 -0.098166 -26.134214
v -0.833232 -0.098166 -26.169182
v -0.868200 -0.098166 -26.214754
v -0.890181 -0.098166 -26.267822
v -0.897679 -0.098166 -26.324772
v -0.890181 -0.098166 -26.381721
v -0.868200 -0.098166 -26.434790
v -0.833232 -0.098166 -26.480362
v -0.787661 -0.098166 -26.515329
v -0.734592 -0.098166 -26.537312
vt 0.457698 0.105975
vt 0.392622 0.171050
vt 0.392622 0.105975
vt 0.457698 0.105975
vt 0.392622 0.171050
vt 0.392622 0.105975
vt 0.457698 0.105975
vt 0.392622 0.171050
vt 0.392622 0.105975
vt 0.457698 0.105975
vt 0.392622 0.171050
vt 0.392622 0.105975
vt 0.457698 0.105975
vt 0.392622 0.171050
vt 0.392622 0.105975
vt 0.457698 0.105975
vt 0.392622 0.171050
vt 0.392622 0.105975
vt 0.457698 0.105975
vt 0.392622 0.171050
vt 0.392622 0.105975
vt 0.457698 0.105975
vt 0.392622 0.171050
vt 0.392622 0.105975
vt 0.457698 0.105975
vt 0.392622 0.171050
vt 0.392622 0.105975
vt 0.457698 0.105975
vt 0.392622 0.171050
vt 0.392622 0.105975
vt 0.457698 0.105975
vt 0.392622 0.171050
vt 0.392622 0.105975
vt 0.457698 0.105975
vt 0.392622 0.171050
vt 0.392622 0.105975
vt 0.457698 0.105975
vt 0.392622 0.171050
vt 0.392622 0.105975
vt 0.457698 0.105975
vt 0.392622 0.171050
vt 0.392622 0.105975
vt 0.457698 0.105975
vt 0.392622 0.171050
vt 0.392622 0.105975
vt 0.457698 0.105975
vt 0.392622 0.171050
vt 0.392622 0.105975
vt 0.457698 0.105975
vt 0.392622 0.171050
vt 0.392622 0.105975
vt 0.457698 0.105975
vt 0.392622 0.171050
vt 0.392622 0.105975
vt 0.457698 0.105975
vt 0.392622 0.171050
vt 0.392622 0.105975
vt 0.457698 0.105975
vt 0.392622 0.171050
vt 0.392622 0.105975
vt 0.457698 0.105975
vt 0.392622 0.171050
vt 0.392622 0.105975
vt 0.457698 0.105975
vt 0.392622 0.171050
vt 0.392622 0.105975
vt 0.731264 0.347808
vt 0.662632 0.416440
vt 0.662632 0.347808
vt 0.457698 0.105975
vt 0.392622 0.171050
vt 0.392622 0.105975
vt 0.457698 0.105975
vt 0.392622 0.171050
vt 0.392622 0.105975
vt 0.392622 0.105975
vt 0.457698 0.171050
vt 0.392622 0.171050
vt 0.457698 0.105975
vt 0.392622 0.171050
vt 0.392622 0.105975
vt 0.457698 0.105975
vt 0.392622 0.171050
vt 0.392622 0.105975
vt 0.457698 0.105975
vt 0.392622 0.171050
vt 0.392622 0.105975
vt 0.392622 0.105975
vt 0.457698 0.171050
vt 0.392622 0.171050
vt 0.392622 0.105975
vt 0.457698 0.171050
vt 0.392622 0.171050
vt 0.392622 0.105975
vt 0.457698 0.171050
vt 0.392622 0.171050
vt 0.457698 0.105975
vt 0.392622 0.171050
vt 0.392622 0.105975
vt 0.457698 0.105975
vt 0.392622 0.171050
vt 0.392622 0.105975
vt 0.457698 0.105975
vt 0.392622 0.171050
vt 0.392622 0.105975
vt 0.457698 0.105975
vt 0.392622 0.171050
vt 0.392622 0.105975
vt 0.457698 0.105975
vt 0.392622 0.171050
vt 0.392622 0.105975
vt 0.457698 0.105975
vt 0.392622 0.171050
vt 0.392622 0.105975
vt 0.457698 0.105975
vt 0.392622 0.171050
vt 0.392622 0.105975
vt 0.392622 0.105975
vt 0.457698 0.171050
vt 0.392622 0.171050
vt 0.457698 0.105975
vt 0.392622 0.171050
vt 0.392622 0.105975
vt 0.457698 0.105975
vt 0.392622 0.171050
vt 0.392622 0.105975
vt 0.457698 0.105975
vt 0.392622 0.171050
vt 0.392622 0.105975
vt 0.392622 0.105975
vt 0.457698 0.171050
vt 0.392622 0.171050
vt 0.457698 0.105975
vt 0.392622 0.171050
vt 0.392622 0.105975
vt 0.457698 0.105975
vt 0.392622 0.171050
vt 0.392622 0.105975
vt 0.457698 0.105975
vt 0.392622 0.171050
vt 0.392622 0.105975
vt 0.392622 0.105975
vt 0.457698 0.171050
vt 0.392622 0.171050
vt 0.457698 0.105975
vt 0.392622 0.171050
vt 0.392622 0.105975
vt 0.731264 0.347808
vt 0.662632 0.416440
vt 0.662632 0.347808
vt 0.662632 0.347808
vt 0.731264 0.416440
vt 0.662632 0.416440
vt 0.662632 0.347808
vt 0.731264 0.416440
vt 0.662632 0.416440
vt 0.662632 0.347808
vt 0.731264 0.416440
vt 0.662632 0.416440
vt 0.731264 0.347808
vt 0.662632 0.416440
vt 0.662632 0.347808
vt 0.731264 0.347808
vt 0.662632 0.416440
vt 0.662632 0.347808
vt 0.731264 0.347808
vt 0.662632 0.416440
vt 0.662632 0.347808
vt 0.731264 0.347808
vt 0.662632 0.416440
vt 0.662632 0.347808
vt 0.731264 0.347808
vt 0.662632 0.416440
vt 0.662632 0.347808
vt 0.731264 0.347808
vt 0.662632 0.416440
vt 0.662632 0.347808
vt 0.662632 0.347808
vt 0.731264 0.416440
vt 0.662632 0.416440
vt 0.731264 0.347808
vt 0.662632 0.416440
vt 0.662632 0.347808
vt 0.731264 0.347808
vt 0.662632 0.416440
vt 0.662632 0.347808
vt 0.731264 0.347808
vt 0.662632 0.416440
vt 0.662632 0.347808
vt 0.731264 0.347808
vt 0.662632 0.416440
vt 0.662632 0.347808
vt 0.731264 0.347808
vt 0.662632 0.416440
vt 0.662632 0.347808
vt 0.662632 0.347808
vt 0.731264 0.416440
vt 0.662632 0.416440
vt 0.731264 0.347808
vt 0.662632 0.416440
vt 0.662632 0.347808
vt 0.731264 0.347808
vt 0.662632 0.416440
vt 0.662632 0.347808
vt 0.662632 0.347808
vt 0.731264 0.416440
vt 0.662632 0.416440
vt 0.731264 0.347808
vt 0.662632 0.416440
vt 0.662632 0.347808
vt 0.731264 0.347808
vt 0.662632 0.416440
vt 0.662632 0.347808
vt 0.662632 0.347808
vt 0.731264 0.416440
vt 0.662632 0.416440
vt 0.097441 0.088111
vt 0.012354 0.173198
vt 0.012354 0.088111
vt 0.097441 0.088111
vt 0.012354 0.173198
vt 0.012354 0.088111
vt 0.097441 0.088111
vt 0.012354 0.173198
vt 0.012354 0.088111
vt 0.097441 0.088111
vt 0.012354 0.173198
vt 0.012354 0.088111
vt 0.097441 0.088111
vt 0.012354 0.173198
vt 0.012354 0.088111
vt 0.097441 0.088111
vt 0.012354 0.173198
vt 0.012354 0.088111
vt 0.097441 0.088111
vt 0.012354 0.173198
vt 0.012354 0.088111
vt 0.097441 0.088111
vt 0.012354 0.173198
vt 0.012354 0.088111
vt 0.097441 0.088111
vt 0.012354 0.173198
vt 0.012354 0.088111
vt 0.097441 0.088111
vt 0.012354 0.173198
vt 0.012354 0.088111
vt 0.097441 0.088111
vt 0.012354 0.173198
vt 0.012354 0.088111
vt 0.097441 0.088111
vt 0.012354 0.173198
vt 0.012354 0.088111
vt 0.097441 0.088111
vt 0.012354 0.173198
vt 0.012354 0.088111
vt 0.097441 0.088111
vt 0.012354 0.173198
vt 0.012354 0.088111
vt 0.097441 0.088111
vt 0.012354 0.173198
vt 0.012354 0.088111
vt 0.097441 0.088111
vt 0.012354 0.173198
vt 0.012354 0.088111
vt 0.097441 0.088111
vt 0.012354 0.173198
vt 0.012354 0.088111
vt 0.097441 0.088111
vt 0.012354 0.173198
vt 0.012354 0.088111
vt 0.097441 0.088111
vt 0.012354 0.173198
vt 0.012354 0.088111
vt 0.097441 0.088111
vt 0.012354 0.173198
vt 0.012354 0.088111
vt 0.097441 0.088111
vt 0.012354 0.173198
vt 0.012354 0.088111
vt 0.097441 0.088111
vt 0.012354 0.173198
vt 0.012354 0.088111
vt 0.097441 0.088111
vt 0.012354 0.173198
vt 0.012354 0.088111
vt 0.097441 0.088111
vt 0.012354 0.173198
vt 0.012354 0.088111
vt 0.662632 0.347808
vt 0.731264 0.347808
vt 0.731264 0.416440
vt 0.731264 0.347808
vt 0.731264 0.416440
vt 0.731264 0.347808
vt 0.731264 0.416440
vt 0.731264 0.347808
vt 0.731264 0.416440
vt 0.731264 0.347808
vt 0.731264 0.416440
vt 0.731264 0.347808
vt 0.731264 0.416440
vt 0.731264 0.347808
vt 0.731264 0.347808
vt 0.731264 0.416440
vt 0.731264 0.347808
vt 0.731264 0.416440
vt 0.731264 0.347808
vt 0.731264 0.416440
vt 0.731264 0.347808
vt 0.731264 0.347808
vt 0.731264 0.347808
vt 0.731264 0.347808
vt 0.731264 0.347808
vt 0.731264 0.416440
vt 0.731264 0.347808
vt 0.731264 0.416440
vt 0.731264 0.347808
vt 0.731264 0.416440
vt 0.731264 0.347808
vt 0.731264 0.416440
vt 0.731264 0.347808
vt 0.731264 0.416440
vt 0.731264 0.347808
vt 0.731264 0.416440
vt 0.731264 0.347808
vt 0.731264 0.416440
vt 0.731264 0.347808
vt 0.731264 0.347808
vt 0.731264 0.416440
vt 0.731264 0.347808
vt 0.000000 0.000000
vt 1.000000 0.000000
vt 1.000000 1.000000
vt 1.000000 0.000000
vt 1.000000 1.000000
vt 1.000000 0.000000
vt 1.000000 1.000000
vt 1.000000 0.000000
vt 1.000000 1.000000
vt 1.000000 0.000000
vt 1.000000 1.000000
vt 1.000000 0.000000
vt 1.000000 1.000000
vt 1.000000 0.000000
vt 1.000000 1.000000
vt 1.000000 0.000000
vt 1.000000 1.000000
vt 1.000000 0.000000
vt 1.000000 1.000000
vt 1.000000 0.000000
vt 1.000000 1.000000
vt 1.000000 0.000000
vt 1.000000 1.000000
vt 1.000000 0.000000
vt 1.000000 1.000000
vt 1.000000 0.000000
vt 1.000000 1.000000
vt 1.000000 0.000000
vt 1.000000 1.000000
vt 1.000000 0.000000
vt 1.000000 1.000000
vt 1.000000 0.000000
vt 1.000000 1.000000
vt 1.000000 0.000000
vt 1.000000 1.000000
vt 1.000000 0.000000
vt 1.000000 1.000000
vt 1.000000 0.000000
vt 1.000000 1.000000
vt 1.000000 0.000000
vt 1.000000 1.000000
vt 1.000000 0.000000
vt 1.000000 1.000000
vt 1.000000 0.000000
vt 1.000000 1.000000
vt 1.000000 0.000000
vt 1.000000 1.000000
vt 1.000000 0.000000
vt 1.000000 1.000000
vt 0.000000 0.000000
vt 1.000000 1.000000
vt 0.000000 1.000000
vt 0.457698 0.171050
vt 0.457698 0.171050
vt 0.457698 0.171050
vt 0.457698 0.171050
vt 0.457698 0.171050
vt 0.457698 0.171050
vt 0.457698 0.171050
vt 0.457698 0.171050
vt 0.457698 0.171050
vt 0.457698 0.171050
vt 0.457698 0.171050
vt 0.457698 0.171050
vt 0.457698 0.171050
vt 0.457698 0.171050
vt 0.457698 0.171050
vt 0.457698 0.171050
vt 0.457698 0.171050
vt 0.457698 0.105975
vt 0.457698 0.105975
vt 0.457698 0.105975
vt 0.457698 0.105975
vt 0.457698 0.105975
vt 0.457698 0.105975
vt 0.457698 0.105975
vt 0.731264 0.347808
vt 0.731264 0.347808
vt 0.731264 0.347808
vt 0.731264 0.347808
vt 0.731264 0.347808
vt 0.731264 0.347808
vt 0.731264 0.347808
vt 0.097441 0.173198
vt 0.097441 0.173198
vt 0.097441 0.173198
vt 0.097441 0.173198
vt 0.097441 0.173198
vt 0.097441 0.173198
vt 0.097441 0.173198
vt 0.097441 0.173198
vt 0.097441 0.173198
vt 0.097441 0.173198
vt 0.097441 0.173198
vt 0.097441 0.173198
vt 0.097441 0.173198
vt 0.097441 0.173198
vt 0.097441 0.173198
vt 0.097441 0.173198
vt 0.097441 0.173198
vt 0.097441 0.173198
vt 0.097441 0.173198
vt 0.097441 0.173198
vt 0.097441 0.173198
vt 0.097441 0.173198
vt 0.097441 0.173198
vt 0.097441 0.173198
vt 1.000000 0.000000
vn 0.0000 0.6789 -0.7342
vn 0.2588 0.0000 -0.9659
vn 0.0000 0.0000 -1.0000
vn 0.1900 0.6789 -0.7092
vn 0.5000 0.0000 -0.8660
vn 0.3671 0.6789 -0.6359
vn 0.7071 0.0000 -0.7071
vn 0.5192 0.6789 -0.5192
vn 0.8660 0.0000 -0.5000
vn 0.6359 0.6789 -0.3671
vn 0.9659 0.0000 -0.2588
vn 0.7092 0.6789 -0.1900
vn 1.0000 0.0000 0.0000
vn 0.7342 0.6789 0.0000
vn 0.9659 0.0000 0.2588
vn 0.7092 0.6789 0.1900
vn 0.8660 0.0000 0.5000
vn 0.6359 0.6789 0.3671
vn 0.7071 0.0000 0.7071
vn 0.5192 0.6789 0.5192
vn 0.5000 0.0000 0.8660
vn 0.3671 0.6789 0.6359
vn 0.2588 0.0000 0.9659
vn 0.1900 0.6789 0.7092
vn 0.0000 0.0000 1.0000
vn 0.0000 0.6789 0.7342
vn -0.2588 0.0000 0.9659
vn -0.1900 0.6789 0.7092
vn -0.5000 0.0000 0.8660
vn -0.3671 0.6789 0.6359
vn -0.7071 0.0000 0.7071
vn -0.5192 0.6789 0.5192
vn -0.8660 0.0000 0.5000
vn -0.6359 0.6789 0.3671
vn -0.9659 0.0000 0.2588
vn -0.7092 0.6789 0.1900
vn -1.0000 0.0000 0.0000
vn -0.7342 0.6789 0.0000
vn -0.9659 0.0000 -0.2588
vn -0.7092 0.6789 -0.1900
vn -0.8660 0.0000 -0.5000
vn -0.6359 0.6789 -0.3671
vn -0.7071 0.0000 -0.7071
vn -0.5192 0.6789 -0.5192
vn -0.5000 0.0000 -0.8660
vn 0.6521 0.7377 -0.1747
vn 0.6751 0.7377 0.0000
vn -0.3671 0.6789 -0.6359
vn -0.2588 0.0000 -0.9659
vn -0.1900 0.6789 -0.7092
vn 0.0000 0.7377 -0.6751
vn 0.3376 0.7377 -0.5846
vn 0.1748 0.7377 -0.6521
vn 0.4774 0.7377 -0.4774
vn 0.5847 0.7377 -0.3376
vn 0.5847 0.7377 0.3375
vn 0.6521 0.7377 0.1747
vn 0.4774 0.7377 0.4773
vn 0.3376 0.7377 0.5847
vn 0.1747 0.7377 0.6521
vn 0.0000 0.7377 0.6751
vn -0.1747 0.7377 0.6521
vn -0.3376 0.7377 0.5847
vn -0.5847 0.7377 0.3376
vn -0.4774 0.7377 0.4774
vn -0.6521 0.7377 0.1747
vn -0.6751 0.7377 0.0000
vn -0.5847 0.7377 -0.3375
vn -0.6521 0.7377 -0.1747
vn -0.4774 0.7377 -0.4773
vn -0.3376 0.7377 -0.5847
vn -0.1747 0.7377 -0.6521
vn 0.1900 0.6789 -0.7093
vn 0.1900 0.6789 0.7093
vn -0.7092 0.6789 -0.1901
vn 0.0000 -0.6789 -0.7342
vn -0.1900 -0.6789 -0.7092
vn -0.3671 -0.6789 -0.6359
vn -0.5192 -0.6789 -0.5192
vn -0.6359 -0.6789 -0.3671
vn -0.7092 -0.6789 -0.1900
vn -0.7342 -0.6789 0.0000
vn -0.7092 -0.6789 0.1900
vn -0.6359 -0.6789 0.3671
vn -0.5192 -0.6789 0.5192
vn -0.3671 -0.6789 0.6359
vn -0.1900 -0.6789 0.7092
vn 0.0000 -0.6789 0.7342
vn 0.1900 -0.6789 0.7092
vn 0.3671 -0.6789 0.6359
vn 0.5192 -0.6789 0.5192
vn 0.6359 -0.6789 0.3671
vn 0.7092 -0.6789 0.1900
vn 0.5870 -0.6453 -0.4888
vn 0.7092 -0.6789 -0.1900
vn 0.6359 -0.6789 -0.3671
vn 0.5192 -0.6789 -0.5192
vn 0.3671 -0.6789 -0.6359
vn 0.1900 -0.6789 -0.7092
vn 0.0000 1.0000 0.0000
vn 0.0000 -0.9972 -0.0751
vn 0.0000 -0.2053 -0.9787
g Cylinder.004_Cylinder.013_Pilha.008
usemtl Pilha.008
s 1
f 29/1/1 54/2/2 53/3/3
f 28/4/4 55/5/5 54/6/2
f 30/7/6 56/8/7 55/9/5
f 31/10/8 57/11/9 56/12/7
f 32/13/10 58/14/11 57/15/9
f 33/16/12 59/17/13 58/18/11
f 34/19/14 60/20/15 59/21/13
f 35/22/16 61/23/17 60/24/15
f 36/25/18 62/26/19 61/27/17
f 37/28/20 63/29/21 62/30/19
f 38/31/22 64/32/23 63/33/21
f 39/34/24 65/35/25 64/36/23
f 40/37/26 66/38/27 65/39/25
f 41/40/28 67/41/29 66/42/27
f 42/43/30 68/44/31 67/45/29
f 43/46/32 69/47/33 68/48/31
f 44/49/34 70/50/35 69/51/33
f 45/52/36 71/53/37 70/54/35
f 46/55/38 72/56/39 71/57/37
f 47/58/40 73/59/41 72/60/39
f 48/61/42 74/62/43 73/63/41
f 49/64/44 75/65/45 74/66/43
f 7/67/46 83/68/14 8/69/47
f 50/70/48 76/71/49 75/72/45
f 51/73/50 53/74/3 76/75/49
f 2/76/51 28/77/4 29/78/1
f 4/79/52 28/80/4 3/81/53
f 5/82/54 30/83/6 4/84/52
f 6/85/55 31/86/8 5/87/54
f 6/88/55 33/89/12 32/90/10
f 7/91/46 34/92/14 33/93/12
f 8/94/47 35/95/16 34/96/14
f 10/97/56 35/98/16 9/99/57
f 11/100/58 36/101/18 10/102/56
f 12/103/59 37/104/20 11/105/58
f 13/106/60 38/107/22 12/108/59
f 14/109/61 39/110/24 13/111/60
f 15/112/62 40/113/26 14/114/61
f 16/115/63 41/116/28 15/117/62
f 16/118/63 43/119/32 42/120/30
f 18/121/64 43/122/32 17/123/65
f 19/124/66 44/125/34 18/126/64
f 20/127/67 45/128/36 19/129/66
f 20/130/67 47/131/40 46/132/38
f 22/133/68 47/134/40 21/135/69
f 23/136/70 48/137/42 22/138/68
f 25/139/71 49/140/44 23/141/70
f 25/142/71 51/143/50 50/144/48
f 2/145/51 51/146/50 27/147/72
f 22/148/68 98/149/44 23/150/70
f 16/151/63 90/152/28 91/153/30
f 9/154/57 83/155/14 84/156/16
f 25/157/71 98/158/44 99/159/48
f 16/160/63 92/161/32 17/162/65
f 9/163/57 85/164/18 10/165/56
f 25/166/71 100/167/50 27/168/72
f 2/169/51 77/170/73 3/171/53
f 17/172/65 93/173/34 18/174/64
f 10/175/56 86/176/20 11/177/58
f 2/178/51 100/179/50 78/180/1
f 3/181/53 79/182/6 4/183/52
f 18/184/64 94/185/36 19/186/66
f 11/187/58 87/188/22 12/189/59
f 4/190/52 80/191/8 5/192/54
f 19/193/66 95/194/38 20/195/67
f 13/196/60 87/197/22 88/198/74
f 5/199/54 81/200/10 6/201/55
f 20/202/67 96/203/75 21/204/69
f 14/205/61 88/206/74 89/207/26
f 6/208/55 82/209/12 7/210/46
f 21/211/69 97/212/42 22/213/68
f 15/214/62 89/215/26 90/216/28
f 76/217/49 101/218/76 124/219/77
f 75/220/45 124/221/77 123/222/78
f 74/223/43 123/224/78 122/225/79
f 73/226/41 122/227/79 121/228/80
f 72/229/39 121/230/80 120/231/81
f 71/232/37 120/233/81 119/234/82
f 70/235/35 119/236/82 118/237/83
f 69/238/33 118/239/83 117/240/84
f 68/241/31 117/242/84 116/243/85
f 67/244/29 116/245/85 115/246/86
f 66/247/27 115/248/86 114/249/87
f 65/250/25 114/251/87 113/252/88
f 64/253/23 113/254/88 112/255/89
f 63/256/21 112/257/89 111/258/90
f 62/259/19 111/260/90 110/261/91
f 61/262/17 110/263/91 109/264/92
f 60/265/15 109/266/92 108/267/93
f 59/268/13 108/269/93 107/270/94
f 58/271/11 107/272/94 106/273/95
f 57/274/9 106/275/95 105/276/96
f 56/277/7 105/278/96 104/279/97
f 55/280/5 104/281/97 103/282/98
f 54/283/2 103/284/98 102/285/99
f 53/286/3 102/287/99 101/288/76
f 52/289/100 77/290/73 78/291/1
f 52/289/100 79/292/6 77/293/73
f 52/289/100 80/294/8 79/295/6
f 52/289/100 81/296/10 80/297/8
f 52/289/100 82/298/12 81/299/10
f 52/289/100 83/300/14 82/301/12
f 52/289/100 84/302/16 83/155/14
f 52/289/100 85/303/18 84/304/16
f 52/289/100 86/305/20 85/306/18
f 52/289/100 87/307/22 86/308/20
f 52/289/100 88/309/74 87/197/22
f 52/289/100 89/310/26 88/206/74
f 52/289/100 90/311/28 89/215/26
f 52/289/100 91/312/30 90/152/28
f 52/289/100 92/313/32 91/314/30
f 52/289/100 93/315/34 92/316/32
f 52/289/100 94/317/36 93/318/34
f 52/289/100 95/319/38 94/320/36
f 52/289/100 96/321/75 95/322/38
f 52/289/100 97/323/42 96/324/75
f 52/289/100 98/325/44 97/326/42
f 52/289/100 99/327/48 98/158/44
f 52/289/100 100/328/50 99/329/48
f 52/289/100 78/330/1 100/179/50
f 1/331/101 101/332/76 102/333/99
f 1/331/101 102/334/99 103/335/98
f 1/331/101 103/336/98 104/337/97
f 1/331/101 104/338/97 105/339/96
f 1/331/101 105/340/96 106/341/95
f 1/331/101 106/342/95 107/343/94
f 1/331/101 107/344/94 108/345/93
f 1/331/101 108/346/93 109/347/92
f 1/331/101 109/348/92 110/349/91
f 1/331/101 110/350/91 111/351/90
f 1/331/101 111/352/90 112/353/89
f 1/331/101 112/354/89 113/355/88
f 1/331/101 113/356/88 114/357/87
f 1/331/101 114/358/87 115/359/86
f 1/331/101 115/360/86 116/361/85
f 1/331/101 116/362/85 117/363/84
f 1/331/101 117/364/84 118/365/83
f 1/331/101 118/366/83 119/367/82
f 1/331/101 119/368/82 120/369/81
f 1/331/101 120/370/81 121/371/80
f 1/331/101 121/372/80 122/373/79
f 1/331/101 122/374/79 123/375/78
f 1/331/101 123/376/78 124/377/77
f 1/331/101 124/378/77 101/379/76
f 107/380/94 26/381/102 24/382/102
f 29/1/1 28/77/4 54/2/2
f 28/4/4 30/383/6 55/5/5
f 30/7/6 31/384/8 56/8/7
f 31/10/8 32/385/10 57/11/9
f 32/13/10 33/89/12 58/14/11
f 33/16/12 34/92/14 59/17/13
f 34/19/14 35/95/16 60/20/15
f 35/22/16 36/386/18 61/23/17
f 36/25/18 37/387/20 62/26/19
f 37/28/20 38/388/22 63/29/21
f 38/31/22 39/389/24 64/32/23
f 39/34/24 40/390/26 65/35/25
f 40/37/26 41/391/28 66/38/27
f 41/40/28 42/392/30 67/41/29
f 42/43/30 43/119/32 68/44/31
f 43/46/32 44/393/34 69/47/33
f 44/49/34 45/394/36 70/50/35
f 45/52/36 46/395/38 71/53/37
f 46/55/38 47/131/40 72/56/39
f 47/58/40 48/396/42 73/59/41
f 48/61/42 49/397/44 74/62/43
f 49/64/44 50/398/48 75/65/45
f 7/67/46 82/301/12 83/68/14
f 50/70/48 51/143/50 76/71/49
f 51/73/50 29/399/1 53/74/3
f 2/76/51 3/400/53 28/77/4
f 4/79/52 30/383/6 28/80/4
f 5/82/54 31/384/8 30/83/6
f 6/85/55 32/385/10 31/86/8
f 6/88/55 7/401/46 33/89/12
f 7/91/46 8/402/47 34/92/14
f 8/94/47 9/403/57 35/95/16
f 10/97/56 36/386/18 35/98/16
f 11/100/58 37/387/20 36/101/18
f 12/103/59 38/388/22 37/104/20
f 13/106/60 39/389/24 38/107/22
f 14/109/61 40/390/26 39/110/24
f 15/112/62 41/391/28 40/113/26
f 16/115/63 42/392/30 41/116/28
f 16/118/63 17/404/65 43/119/32
f 18/121/64 44/393/34 43/122/32
f 19/124/66 45/394/36 44/125/34
f 20/127/67 46/395/38 45/128/36
f 20/130/67 21/405/69 47/131/40
f 22/133/68 48/396/42 47/134/40
f 23/136/70 49/397/44 48/137/42
f 25/139/71 50/398/48 49/140/44
f 25/142/71 27/406/72 51/143/50
f 2/145/51 29/399/1 51/146/50
f 22/148/68 97/326/42 98/149/44
f 16/151/63 15/407/62 90/152/28
f 9/154/57 8/408/47 83/155/14
f 25/157/71 23/409/70 98/158/44
f 16/160/63 91/314/30 92/161/32
f 9/163/57 84/304/16 85/164/18
f 25/166/71 99/329/48 100/167/50
f 2/169/51 78/291/1 77/170/73
f 17/172/65 92/316/32 93/173/34
f 10/175/56 85/306/18 86/176/20
f 2/178/51 27/410/72 100/179/50
f 3/181/53 77/293/73 79/182/6
f 18/184/64 93/318/34 94/185/36
f 11/187/58 86/308/20 87/188/22
f 4/190/52 79/295/6 80/191/8
f 19/193/66 94/320/36 95/194/38
f 13/196/60 12/411/59 87/197/22
f 5/199/54 80/297/8 81/200/10
f 20/202/67 95/322/38 96/203/75
f 14/205/61 13/412/60 88/206/74
f 6/208/55 81/299/10 82/209/12
f 21/211/69 96/324/75 97/212/42
f 15/214/62 14/413/61 89/215/26
f 76/217/49 53/414/3 101/218/76
f 75/220/45 76/415/49 124/221/77
f 74/223/43 75/416/45 123/224/78
f 73/226/41 74/417/43 122/227/79
f 72/229/39 73/418/41 121/230/80
f 71/232/37 72/419/39 120/233/81
f 70/235/35 71/420/37 119/236/82
f 69/238/33 70/421/35 118/239/83
f 68/241/31 69/422/33 117/242/84
f 67/244/29 68/423/31 116/245/85
f 66/247/27 67/424/29 115/248/86
f 65/250/25 66/425/27 114/251/87
f 64/253/23 65/426/25 113/254/88
f 63/256/21 64/427/23 112/257/89
f 62/259/19 63/428/21 111/260/90
f 61/262/17 62/429/19 110/263/91
f 60/265/15 61/430/17 109/266/92
f 59/268/13 60/431/15 108/269/93
f 58/271/11 59/432/13 107/272/94
f 57/274/9 58/433/11 106/275/95
f 56/277/7 57/434/9 105/278/96
f 55/280/5 56/435/7 104/281/97
f 54/283/2 55/436/5 103/284/98
f 53/286/3 54/437/2 102/287/99
f 107/380/94 1/438/101 26/381/102
